<svg version="1.1" viewBox="0.0 0.0 523.2887139107612 431.50656167979" fill="none" stroke="none" stroke-linecap="square" stroke-miterlimit="10" xmlns:xlink="http://www.w3.org/1999/xlink" xmlns="http://www.w3.org/2000/svg"><clipPath id="p.0"><path d="m0 0l523.2887 0l0 431.50656l-523.2887 0l0 -431.50656z" clip-rule="nonzero"/></clipPath><g clip-path="url(#p.0)"><path fill="#000000" fill-opacity="0.0" d="m0 0l523.2887 0l0 431.50656l-523.2887 0z" fill-rule="evenodd"/><path fill="#b7b7b7" d="m32.43176 53.763176l0 0c0 -19.05349 15.445904 -34.499397 34.499393 -34.499397l389.4264 0c9.149811 0 17.924866 3.6347485 24.394775 10.104641c6.469879 6.4698906 10.104645 15.244946 10.104645 24.394756l0 323.97757c0 19.053497 -15.445923 34.49939 -34.49942 34.49939l-389.4264 0c-19.05349 0 -34.499393 -15.445892 -34.499393 -34.49939z" fill-rule="evenodd"/><path stroke="#999999" stroke-width="4.0" stroke-linejoin="round" stroke-linecap="butt" d="m32.43176 53.763176l0 0c0 -19.05349 15.445904 -34.499397 34.499393 -34.499397l389.4264 0c9.149811 0 17.924866 3.6347485 24.394775 10.104641c6.469879 6.4698906 10.104645 15.244946 10.104645 24.394756l0 323.97757c0 19.053497 -15.445923 34.49939 -34.49942 34.49939l-389.4264 0c-19.05349 0 -34.499393 -15.445892 -34.499393 -34.49939z" fill-rule="evenodd"/><path fill="#585757" d="m50.053734 245.73058l0 0c0 -12.898239 10.456093 -23.35434 23.354332 -23.35434l0 0c6.1939545 0 12.134216 2.4605408 16.514008 6.840332c4.3797836 4.3797913 6.8403244 10.320053 6.8403244 16.514008l0 0c0 12.898239 -10.456093 23.354324 -23.354332 23.354324l0 0c-12.898239 0 -23.354332 -10.456085 -23.354332 -23.354324z" fill-rule="evenodd"/><path stroke="#585757" stroke-width="3.0" stroke-linejoin="round" stroke-linecap="butt" d="m50.053734 245.73058l0 0c0 -12.898239 10.456093 -23.35434 23.354332 -23.35434l0 0c6.1939545 0 12.134216 2.4605408 16.514008 6.840332c4.3797836 4.3797913 6.8403244 10.320053 6.8403244 16.514008l0 0c0 12.898239 -10.456093 23.354324 -23.354332 23.354324l0 0c-12.898239 0 -23.354332 -10.456085 -23.354332 -23.354324z" fill-rule="evenodd"/><path fill="#585757" d="m112.79965 245.73058l0 0c0 -12.898239 10.456093 -23.35434 23.35434 -23.35434l0 0c6.193939 0 12.134216 2.4605408 16.513992 6.840332c4.3797913 4.3797913 6.840332 10.320053 6.840332 16.514008l0 0c0 12.898239 -10.456085 23.354324 -23.354324 23.354324l0 0c-12.898247 0 -23.35434 -10.456085 -23.35434 -23.354324z" fill-rule="evenodd"/><path stroke="#585757" stroke-width="3.0" stroke-linejoin="round" stroke-linecap="butt" d="m112.79965 245.73058l0 0c0 -12.898239 10.456093 -23.35434 23.35434 -23.35434l0 0c6.193939 0 12.134216 2.4605408 16.513992 6.840332c4.3797913 4.3797913 6.840332 10.320053 6.840332 16.514008l0 0c0 12.898239 -10.456085 23.354324 -23.354324 23.354324l0 0c-12.898247 0 -23.35434 -10.456085 -23.35434 -23.354324z" fill-rule="evenodd"/><path fill="#585757" d="m175.54558 245.73058l0 0c0 -12.898239 10.456085 -23.35434 23.354324 -23.35434l0 0c6.1939545 0 12.134216 2.4605408 16.514008 6.840332c4.3797913 4.3797913 6.840317 10.320053 6.840317 16.514008l0 0c0 12.898239 -10.456085 23.354324 -23.354324 23.354324l0 0c-12.898239 0 -23.354324 -10.456085 -23.354324 -23.354324z" fill-rule="evenodd"/><path stroke="#585757" stroke-width="3.0" stroke-linejoin="round" stroke-linecap="butt" d="m175.54558 245.73058l0 0c0 -12.898239 10.456085 -23.35434 23.354324 -23.35434l0 0c6.1939545 0 12.134216 2.4605408 16.514008 6.840332c4.3797913 4.3797913 6.840317 10.320053 6.840317 16.514008l0 0c0 12.898239 -10.456085 23.354324 -23.354324 23.354324l0 0c-12.898239 0 -23.354324 -10.456085 -23.354324 -23.354324z" fill-rule="evenodd"/><path fill="#c3dde2" d="m238.29149 245.73058l0 0c0 -12.898239 10.456085 -23.35434 23.354324 -23.35434l0 0c6.1939697 0 12.134216 2.4605408 16.514008 6.840332c4.3797913 4.3797913 6.840332 10.320053 6.840332 16.514008l0 0c0 12.898239 -10.456085 23.354324 -23.35434 23.354324l0 0c-12.898239 0 -23.354324 -10.456085 -23.354324 -23.354324z" fill-rule="evenodd"/><path stroke="#585757" stroke-width="3.0" stroke-linejoin="round" stroke-linecap="butt" d="m238.29149 245.73058l0 0c0 -12.898239 10.456085 -23.35434 23.354324 -23.35434l0 0c6.1939697 0 12.134216 2.4605408 16.514008 6.840332c4.3797913 4.3797913 6.840332 10.320053 6.840332 16.514008l0 0c0 12.898239 -10.456085 23.354324 -23.35434 23.354324l0 0c-12.898239 0 -23.354324 -10.456085 -23.354324 -23.354324z" fill-rule="evenodd"/><path fill="#76a5af" d="m301.0374 245.73058l0 0c0 -12.898239 10.456085 -23.35434 23.35434 -23.35434l0 0c6.193939 0 12.134216 2.4605408 16.513977 6.840332c4.3797913 4.3797913 6.840332 10.320053 6.840332 16.514008l0 0c0 12.898239 -10.456085 23.354324 -23.35431 23.354324l0 0c-12.898254 0 -23.35434 -10.456085 -23.35434 -23.354324z" fill-rule="evenodd"/><path stroke="#585757" stroke-width="3.0" stroke-linejoin="round" stroke-linecap="butt" d="m301.0374 245.73058l0 0c0 -12.898239 10.456085 -23.35434 23.35434 -23.35434l0 0c6.193939 0 12.134216 2.4605408 16.513977 6.840332c4.3797913 4.3797913 6.840332 10.320053 6.840332 16.514008l0 0c0 12.898239 -10.456085 23.354324 -23.35431 23.354324l0 0c-12.898254 0 -23.35434 -10.456085 -23.35434 -23.354324z" fill-rule="evenodd"/><path fill="#585757" d="m363.78333 245.73058l0 0c0 -12.898239 10.456085 -23.35434 23.35434 -23.35434l0 0c6.193939 0 12.134216 2.4605408 16.514008 6.840332c4.3797913 4.3797913 6.8403015 10.320053 6.8403015 16.514008l0 0c0 12.898239 -10.456085 23.354324 -23.35431 23.354324l0 0c-12.898254 0 -23.35434 -10.456085 -23.35434 -23.354324z" fill-rule="evenodd"/><path stroke="#585757" stroke-width="3.0" stroke-linejoin="round" stroke-linecap="butt" d="m363.78333 245.73058l0 0c0 -12.898239 10.456085 -23.35434 23.35434 -23.35434l0 0c6.193939 0 12.134216 2.4605408 16.514008 6.840332c4.3797913 4.3797913 6.8403015 10.320053 6.8403015 16.514008l0 0c0 12.898239 -10.456085 23.354324 -23.35431 23.354324l0 0c-12.898254 0 -23.35434 -10.456085 -23.35434 -23.354324z" fill-rule="evenodd"/><path fill="#585757" d="m426.52924 245.73058l0 0c0 -12.898239 10.456085 -23.35434 23.35434 -23.35434l0 0c6.193939 0 12.134216 2.4605408 16.514008 6.840332c4.3797913 4.3797913 6.840332 10.320053 6.840332 16.514008l0 0c0 12.898239 -10.456085 23.354324 -23.35434 23.354324l0 0c-12.898254 0 -23.35434 -10.456085 -23.35434 -23.354324z" fill-rule="evenodd"/><path stroke="#585757" stroke-width="3.0" stroke-linejoin="round" stroke-linecap="butt" d="m426.52924 245.73058l0 0c0 -12.898239 10.456085 -23.35434 23.35434 -23.35434l0 0c6.193939 0 12.134216 2.4605408 16.514008 6.840332c4.3797913 4.3797913 6.840332 10.320053 6.840332 16.514008l0 0c0 12.898239 -10.456085 23.354324 -23.35434 23.354324l0 0c-12.898254 0 -23.35434 -10.456085 -23.35434 -23.354324z" fill-rule="evenodd"/><path fill="#585757" d="m50.053734 182.98444l0 0c0 -12.898254 10.456093 -23.35434 23.354332 -23.35434l0 0c6.1939545 0 12.134216 2.4605408 16.514008 6.840332c4.3797836 4.379776 6.8403244 10.320053 6.8403244 16.514008l0 0c0 12.898239 -10.456093 23.354324 -23.354332 23.354324l0 0c-12.898239 0 -23.354332 -10.456085 -23.354332 -23.354324z" fill-rule="evenodd"/><path stroke="#585757" stroke-width="3.0" stroke-linejoin="round" stroke-linecap="butt" d="m50.053734 182.98444l0 0c0 -12.898254 10.456093 -23.35434 23.354332 -23.35434l0 0c6.1939545 0 12.134216 2.4605408 16.514008 6.840332c4.3797836 4.379776 6.8403244 10.320053 6.8403244 16.514008l0 0c0 12.898239 -10.456093 23.354324 -23.354332 23.354324l0 0c-12.898239 0 -23.354332 -10.456085 -23.354332 -23.354324z" fill-rule="evenodd"/><path fill="#585757" d="m112.79965 182.98444l0 0c0 -12.898254 10.456093 -23.35434 23.35434 -23.35434l0 0c6.193939 0 12.134216 2.4605408 16.513992 6.840332c4.3797913 4.379776 6.840332 10.320053 6.840332 16.514008l0 0c0 12.898239 -10.456085 23.354324 -23.354324 23.354324l0 0c-12.898247 0 -23.35434 -10.456085 -23.35434 -23.354324z" fill-rule="evenodd"/><path stroke="#585757" stroke-width="3.0" stroke-linejoin="round" stroke-linecap="butt" d="m112.79965 182.98444l0 0c0 -12.898254 10.456093 -23.35434 23.35434 -23.35434l0 0c6.193939 0 12.134216 2.4605408 16.513992 6.840332c4.3797913 4.379776 6.840332 10.320053 6.840332 16.514008l0 0c0 12.898239 -10.456085 23.354324 -23.354324 23.354324l0 0c-12.898247 0 -23.35434 -10.456085 -23.35434 -23.354324z" fill-rule="evenodd"/><path fill="#585757" d="m175.54558 182.98444l0 0c0 -12.898254 10.456085 -23.35434 23.354324 -23.35434l0 0c6.1939545 0 12.134216 2.4605408 16.514008 6.840332c4.3797913 4.379776 6.840317 10.320053 6.840317 16.514008l0 0c0 12.898239 -10.456085 23.354324 -23.354324 23.354324l0 0c-12.898239 0 -23.354324 -10.456085 -23.354324 -23.354324z" fill-rule="evenodd"/><path stroke="#585757" stroke-width="3.0" stroke-linejoin="round" stroke-linecap="butt" d="m175.54558 182.98444l0 0c0 -12.898254 10.456085 -23.35434 23.354324 -23.35434l0 0c6.1939545 0 12.134216 2.4605408 16.514008 6.840332c4.3797913 4.379776 6.840317 10.320053 6.840317 16.514008l0 0c0 12.898239 -10.456085 23.354324 -23.354324 23.354324l0 0c-12.898239 0 -23.354324 -10.456085 -23.354324 -23.354324z" fill-rule="evenodd"/><path fill="#76a5af" d="m238.29149 182.98444l0 0c0 -12.898254 10.456085 -23.35434 23.354324 -23.35434l0 0c6.1939697 0 12.134216 2.4605408 16.514008 6.840332c4.3797913 4.379776 6.840332 10.320053 6.840332 16.514008l0 0c0 12.898239 -10.456085 23.354324 -23.35434 23.354324l0 0c-12.898239 0 -23.354324 -10.456085 -23.354324 -23.354324z" fill-rule="evenodd"/><path stroke="#585757" stroke-width="3.0" stroke-linejoin="round" stroke-linecap="butt" d="m238.29149 182.98444l0 0c0 -12.898254 10.456085 -23.35434 23.354324 -23.35434l0 0c6.1939697 0 12.134216 2.4605408 16.514008 6.840332c4.3797913 4.379776 6.840332 10.320053 6.840332 16.514008l0 0c0 12.898239 -10.456085 23.354324 -23.35434 23.354324l0 0c-12.898239 0 -23.354324 -10.456085 -23.354324 -23.354324z" fill-rule="evenodd"/><path fill="#c3dde2" d="m301.0374 182.98444l0 0c0 -12.898254 10.456085 -23.35434 23.35434 -23.35434l0 0c6.193939 0 12.134216 2.4605408 16.513977 6.840332c4.3797913 4.379776 6.840332 10.320053 6.840332 16.514008l0 0c0 12.898239 -10.456085 23.354324 -23.35431 23.354324l0 0c-12.898254 0 -23.35434 -10.456085 -23.35434 -23.354324z" fill-rule="evenodd"/><path stroke="#585757" stroke-width="3.0" stroke-linejoin="round" stroke-linecap="butt" d="m301.0374 182.98444l0 0c0 -12.898254 10.456085 -23.35434 23.35434 -23.35434l0 0c6.193939 0 12.134216 2.4605408 16.513977 6.840332c4.3797913 4.379776 6.840332 10.320053 6.840332 16.514008l0 0c0 12.898239 -10.456085 23.354324 -23.35431 23.354324l0 0c-12.898254 0 -23.35434 -10.456085 -23.35434 -23.354324z" fill-rule="evenodd"/><path fill="#585757" d="m363.78333 182.98444l0 0c0 -12.898254 10.456085 -23.35434 23.35434 -23.35434l0 0c6.193939 0 12.134216 2.4605408 16.514008 6.840332c4.3797913 4.379776 6.8403015 10.320053 6.8403015 16.514008l0 0c0 12.898239 -10.456085 23.354324 -23.35431 23.354324l0 0c-12.898254 0 -23.35434 -10.456085 -23.35434 -23.354324z" fill-rule="evenodd"/><path stroke="#585757" stroke-width="3.0" stroke-linejoin="round" stroke-linecap="butt" d="m363.78333 182.98444l0 0c0 -12.898254 10.456085 -23.35434 23.35434 -23.35434l0 0c6.193939 0 12.134216 2.4605408 16.514008 6.840332c4.3797913 4.379776 6.8403015 10.320053 6.8403015 16.514008l0 0c0 12.898239 -10.456085 23.354324 -23.35431 23.354324l0 0c-12.898254 0 -23.35434 -10.456085 -23.35434 -23.354324z" fill-rule="evenodd"/><path fill="#585757" d="m426.52924 182.98444l0 0c0 -12.898254 10.456085 -23.35434 23.35434 -23.35434l0 0c6.193939 0 12.134216 2.4605408 16.514008 6.840332c4.3797913 4.379776 6.840332 10.320053 6.840332 16.514008l0 0c0 12.898239 -10.456085 23.354324 -23.35434 23.354324l0 0c-12.898254 0 -23.35434 -10.456085 -23.35434 -23.354324z" fill-rule="evenodd"/><path stroke="#585757" stroke-width="3.0" stroke-linejoin="round" stroke-linecap="butt" d="m426.52924 182.98444l0 0c0 -12.898254 10.456085 -23.35434 23.35434 -23.35434l0 0c6.193939 0 12.134216 2.4605408 16.514008 6.840332c4.3797913 4.379776 6.840332 10.320053 6.840332 16.514008l0 0c0 12.898239 -10.456085 23.354324 -23.35434 23.354324l0 0c-12.898254 0 -23.35434 -10.456085 -23.35434 -23.354324z" fill-rule="evenodd"/><path fill="#585757" d="m50.053734 123.54072l0 0c0 -12.898247 10.456093 -23.354332 23.354332 -23.354332l0 0c6.1939545 0 12.134216 2.4605331 16.514008 6.8403244c4.3797836 4.3797836 6.8403244 10.320053 6.8403244 16.514008l0 0c0 12.8982315 -10.456093 23.354332 -23.354332 23.354332l0 0c-12.898239 0 -23.354332 -10.4561 -23.354332 -23.354332z" fill-rule="evenodd"/><path stroke="#585757" stroke-width="3.0" stroke-linejoin="round" stroke-linecap="butt" d="m50.053734 123.54072l0 0c0 -12.898247 10.456093 -23.354332 23.354332 -23.354332l0 0c6.1939545 0 12.134216 2.4605331 16.514008 6.8403244c4.3797836 4.3797836 6.8403244 10.320053 6.8403244 16.514008l0 0c0 12.8982315 -10.456093 23.354332 -23.354332 23.354332l0 0c-12.898239 0 -23.354332 -10.4561 -23.354332 -23.354332z" fill-rule="evenodd"/><path fill="#585757" d="m112.79965 123.54072l0 0c0 -12.898247 10.456093 -23.354332 23.35434 -23.354332l0 0c6.193939 0 12.134216 2.4605331 16.513992 6.8403244c4.3797913 4.3797836 6.840332 10.320053 6.840332 16.514008l0 0c0 12.8982315 -10.456085 23.354332 -23.354324 23.354332l0 0c-12.898247 0 -23.35434 -10.4561 -23.35434 -23.354332z" fill-rule="evenodd"/><path stroke="#585757" stroke-width="3.0" stroke-linejoin="round" stroke-linecap="butt" d="m112.79965 123.54072l0 0c0 -12.898247 10.456093 -23.354332 23.35434 -23.354332l0 0c6.193939 0 12.134216 2.4605331 16.513992 6.8403244c4.3797913 4.3797836 6.840332 10.320053 6.840332 16.514008l0 0c0 12.8982315 -10.456085 23.354332 -23.354324 23.354332l0 0c-12.898247 0 -23.35434 -10.4561 -23.35434 -23.354332z" fill-rule="evenodd"/><path fill="#585757" d="m175.54558 123.54072l0 0c0 -12.898247 10.456085 -23.354332 23.354324 -23.354332l0 0c6.1939545 0 12.134216 2.4605331 16.514008 6.8403244c4.3797913 4.3797836 6.840317 10.320053 6.840317 16.514008l0 0c0 12.8982315 -10.456085 23.354332 -23.354324 23.354332l0 0c-12.898239 0 -23.354324 -10.4561 -23.354324 -23.354332z" fill-rule="evenodd"/><path stroke="#585757" stroke-width="3.0" stroke-linejoin="round" stroke-linecap="butt" d="m175.54558 123.54072l0 0c0 -12.898247 10.456085 -23.354332 23.354324 -23.354332l0 0c6.1939545 0 12.134216 2.4605331 16.514008 6.8403244c4.3797913 4.3797836 6.840317 10.320053 6.840317 16.514008l0 0c0 12.8982315 -10.456085 23.354332 -23.354324 23.354332l0 0c-12.898239 0 -23.354324 -10.4561 -23.354324 -23.354332z" fill-rule="evenodd"/><path fill="#c3dde2" d="m238.29149 123.54072l0 0c0 -12.898247 10.456085 -23.354332 23.354324 -23.354332l0 0c6.1939697 0 12.134216 2.4605331 16.514008 6.8403244c4.3797913 4.3797836 6.840332 10.320053 6.840332 16.514008l0 0c0 12.8982315 -10.456085 23.354332 -23.35434 23.354332l0 0c-12.898239 0 -23.354324 -10.4561 -23.354324 -23.354332z" fill-rule="evenodd"/><path stroke="#585757" stroke-width="3.0" stroke-linejoin="round" stroke-linecap="butt" d="m238.29149 123.54072l0 0c0 -12.898247 10.456085 -23.354332 23.354324 -23.354332l0 0c6.1939697 0 12.134216 2.4605331 16.514008 6.8403244c4.3797913 4.3797836 6.840332 10.320053 6.840332 16.514008l0 0c0 12.8982315 -10.456085 23.354332 -23.35434 23.354332l0 0c-12.898239 0 -23.354324 -10.4561 -23.354324 -23.354332z" fill-rule="evenodd"/><path fill="#585757" d="m301.0374 123.54072l0 0c0 -12.898247 10.456085 -23.354332 23.35434 -23.354332l0 0c6.193939 0 12.134216 2.4605331 16.513977 6.8403244c4.3797913 4.3797836 6.840332 10.320053 6.840332 16.514008l0 0c0 12.8982315 -10.456085 23.354332 -23.35431 23.354332l0 0c-12.898254 0 -23.35434 -10.4561 -23.35434 -23.354332z" fill-rule="evenodd"/><path stroke="#585757" stroke-width="3.0" stroke-linejoin="round" stroke-linecap="butt" d="m301.0374 123.54072l0 0c0 -12.898247 10.456085 -23.354332 23.35434 -23.354332l0 0c6.193939 0 12.134216 2.4605331 16.513977 6.8403244c4.3797913 4.3797836 6.840332 10.320053 6.840332 16.514008l0 0c0 12.8982315 -10.456085 23.354332 -23.35431 23.354332l0 0c-12.898254 0 -23.35434 -10.4561 -23.35434 -23.354332z" fill-rule="evenodd"/><path fill="#585757" d="m363.78333 123.54072l0 0c0 -12.898247 10.456085 -23.354332 23.35434 -23.354332l0 0c6.193939 0 12.134216 2.4605331 16.514008 6.8403244c4.3797913 4.3797836 6.8403015 10.320053 6.8403015 16.514008l0 0c0 12.8982315 -10.456085 23.354332 -23.35431 23.354332l0 0c-12.898254 0 -23.35434 -10.4561 -23.35434 -23.354332z" fill-rule="evenodd"/><path stroke="#585757" stroke-width="3.0" stroke-linejoin="round" stroke-linecap="butt" d="m363.78333 123.54072l0 0c0 -12.898247 10.456085 -23.354332 23.35434 -23.354332l0 0c6.193939 0 12.134216 2.4605331 16.514008 6.8403244c4.3797913 4.3797836 6.8403015 10.320053 6.8403015 16.514008l0 0c0 12.8982315 -10.456085 23.354332 -23.35431 23.354332l0 0c-12.898254 0 -23.35434 -10.4561 -23.35434 -23.354332z" fill-rule="evenodd"/><path fill="#585757" d="m426.52924 123.54072l0 0c0 -12.898247 10.456085 -23.354332 23.35434 -23.354332l0 0c6.193939 0 12.134216 2.4605331 16.514008 6.8403244c4.3797913 4.3797836 6.840332 10.320053 6.840332 16.514008l0 0c0 12.8982315 -10.456085 23.354332 -23.35434 23.354332l0 0c-12.898254 0 -23.35434 -10.4561 -23.35434 -23.354332z" fill-rule="evenodd"/><path stroke="#585757" stroke-width="3.0" stroke-linejoin="round" stroke-linecap="butt" d="m426.52924 123.54072l0 0c0 -12.898247 10.456085 -23.354332 23.35434 -23.354332l0 0c6.193939 0 12.134216 2.4605331 16.514008 6.8403244c4.3797913 4.3797836 6.840332 10.320053 6.840332 16.514008l0 0c0 12.8982315 -10.456085 23.354332 -23.35434 23.354332l0 0c-12.898254 0 -23.35434 -10.4561 -23.35434 -23.354332z" fill-rule="evenodd"/><path fill="#585757" d="m50.053734 60.794575l0 0c0 -12.898243 10.456093 -23.354332 23.354332 -23.354332l0 0c6.1939545 0 12.134216 2.460537 16.514008 6.8403244c4.3797836 4.3797874 6.8403244 10.320053 6.8403244 16.514008l0 0c0 12.898243 -10.456093 23.354328 -23.354332 23.354328l0 0c-12.898239 0 -23.354332 -10.456085 -23.354332 -23.354328z" fill-rule="evenodd"/><path stroke="#585757" stroke-width="3.0" stroke-linejoin="round" stroke-linecap="butt" d="m50.053734 60.794575l0 0c0 -12.898243 10.456093 -23.354332 23.354332 -23.354332l0 0c6.1939545 0 12.134216 2.460537 16.514008 6.8403244c4.3797836 4.3797874 6.8403244 10.320053 6.8403244 16.514008l0 0c0 12.898243 -10.456093 23.354328 -23.354332 23.354328l0 0c-12.898239 0 -23.354332 -10.456085 -23.354332 -23.354328z" fill-rule="evenodd"/><path fill="#585757" d="m112.79965 60.794575l0 0c0 -12.898243 10.456093 -23.354332 23.35434 -23.354332l0 0c6.193939 0 12.134216 2.460537 16.513992 6.8403244c4.3797913 4.3797874 6.840332 10.320053 6.840332 16.514008l0 0c0 12.898243 -10.456085 23.354328 -23.354324 23.354328l0 0c-12.898247 0 -23.35434 -10.456085 -23.35434 -23.354328z" fill-rule="evenodd"/><path stroke="#585757" stroke-width="3.0" stroke-linejoin="round" stroke-linecap="butt" d="m112.79965 60.794575l0 0c0 -12.898243 10.456093 -23.354332 23.35434 -23.354332l0 0c6.193939 0 12.134216 2.460537 16.513992 6.8403244c4.3797913 4.3797874 6.840332 10.320053 6.840332 16.514008l0 0c0 12.898243 -10.456085 23.354328 -23.354324 23.354328l0 0c-12.898247 0 -23.35434 -10.456085 -23.35434 -23.354328z" fill-rule="evenodd"/><path fill="#585757" d="m175.54558 60.794575l0 0c0 -12.898243 10.456085 -23.354332 23.354324 -23.354332l0 0c6.1939545 0 12.134216 2.460537 16.514008 6.8403244c4.3797913 4.3797874 6.840317 10.320053 6.840317 16.514008l0 0c0 12.898243 -10.456085 23.354328 -23.354324 23.354328l0 0c-12.898239 0 -23.354324 -10.456085 -23.354324 -23.354328z" fill-rule="evenodd"/><path stroke="#585757" stroke-width="3.0" stroke-linejoin="round" stroke-linecap="butt" d="m175.54558 60.794575l0 0c0 -12.898243 10.456085 -23.354332 23.354324 -23.354332l0 0c6.1939545 0 12.134216 2.460537 16.514008 6.8403244c4.3797913 4.3797874 6.840317 10.320053 6.840317 16.514008l0 0c0 12.898243 -10.456085 23.354328 -23.354324 23.354328l0 0c-12.898239 0 -23.354324 -10.456085 -23.354324 -23.354328z" fill-rule="evenodd"/><path fill="#76a5af" d="m238.29149 60.794575l0 0c0 -12.898243 10.456085 -23.354332 23.354324 -23.354332l0 0c6.1939697 0 12.134216 2.460537 16.514008 6.8403244c4.3797913 4.3797874 6.840332 10.320053 6.840332 16.514008l0 0c0 12.898243 -10.456085 23.354328 -23.35434 23.354328l0 0c-12.898239 0 -23.354324 -10.456085 -23.354324 -23.354328z" fill-rule="evenodd"/><path stroke="#585757" stroke-width="3.0" stroke-linejoin="round" stroke-linecap="butt" d="m238.29149 60.794575l0 0c0 -12.898243 10.456085 -23.354332 23.354324 -23.354332l0 0c6.1939697 0 12.134216 2.460537 16.514008 6.8403244c4.3797913 4.3797874 6.840332 10.320053 6.840332 16.514008l0 0c0 12.898243 -10.456085 23.354328 -23.35434 23.354328l0 0c-12.898239 0 -23.354324 -10.456085 -23.354324 -23.354328z" fill-rule="evenodd"/><path fill="#585757" d="m301.0374 60.794575l0 0c0 -12.898243 10.456085 -23.354332 23.35434 -23.354332l0 0c6.193939 0 12.134216 2.460537 16.513977 6.8403244c4.3797913 4.3797874 6.840332 10.320053 6.840332 16.514008l0 0c0 12.898243 -10.456085 23.354328 -23.35431 23.354328l0 0c-12.898254 0 -23.35434 -10.456085 -23.35434 -23.354328z" fill-rule="evenodd"/><path stroke="#585757" stroke-width="3.0" stroke-linejoin="round" stroke-linecap="butt" d="m301.0374 60.794575l0 0c0 -12.898243 10.456085 -23.354332 23.35434 -23.354332l0 0c6.193939 0 12.134216 2.460537 16.513977 6.8403244c4.3797913 4.3797874 6.840332 10.320053 6.840332 16.514008l0 0c0 12.898243 -10.456085 23.354328 -23.35431 23.354328l0 0c-12.898254 0 -23.35434 -10.456085 -23.35434 -23.354328z" fill-rule="evenodd"/><path fill="#585757" d="m363.78333 60.794575l0 0c0 -12.898243 10.456085 -23.354332 23.35434 -23.354332l0 0c6.193939 0 12.134216 2.460537 16.514008 6.8403244c4.3797913 4.3797874 6.8403015 10.320053 6.8403015 16.514008l0 0c0 12.898243 -10.456085 23.354328 -23.35431 23.354328l0 0c-12.898254 0 -23.35434 -10.456085 -23.35434 -23.354328z" fill-rule="evenodd"/><path stroke="#585757" stroke-width="3.0" stroke-linejoin="round" stroke-linecap="butt" d="m363.78333 60.794575l0 0c0 -12.898243 10.456085 -23.354332 23.35434 -23.354332l0 0c6.193939 0 12.134216 2.460537 16.514008 6.8403244c4.3797913 4.3797874 6.8403015 10.320053 6.8403015 16.514008l0 0c0 12.898243 -10.456085 23.354328 -23.35431 23.354328l0 0c-12.898254 0 -23.35434 -10.456085 -23.35434 -23.354328z" fill-rule="evenodd"/><path fill="#585757" d="m426.52924 60.794575l0 0c0 -12.898243 10.456085 -23.354332 23.35434 -23.354332l0 0c6.193939 0 12.134216 2.460537 16.514008 6.8403244c4.3797913 4.3797874 6.840332 10.320053 6.840332 16.514008l0 0c0 12.898243 -10.456085 23.354328 -23.35434 23.354328l0 0c-12.898254 0 -23.35434 -10.456085 -23.35434 -23.354328z" fill-rule="evenodd"/><path stroke="#585757" stroke-width="3.0" stroke-linejoin="round" stroke-linecap="butt" d="m426.52924 60.794575l0 0c0 -12.898243 10.456085 -23.354332 23.35434 -23.354332l0 0c6.193939 0 12.134216 2.460537 16.514008 6.8403244c4.3797913 4.3797874 6.840332 10.320053 6.840332 16.514008l0 0c0 12.898243 -10.456085 23.354328 -23.35434 23.354328l0 0c-12.898254 0 -23.35434 -10.456085 -23.35434 -23.354328z" fill-rule="evenodd"/><path fill="#585757" d="m50.053734 371.22287l0 0c0 -12.898254 10.456093 -23.35434 23.354332 -23.35434l0 0c6.1939545 0 12.134216 2.4605408 16.514008 6.840332c4.3797836 4.3797607 6.8403244 10.320038 6.8403244 16.514008l0 0c0 12.898224 -10.456093 23.35431 -23.354332 23.35431l0 0c-12.898239 0 -23.354332 -10.456085 -23.354332 -23.35431z" fill-rule="evenodd"/><path stroke="#585757" stroke-width="3.0" stroke-linejoin="round" stroke-linecap="butt" d="m50.053734 371.22287l0 0c0 -12.898254 10.456093 -23.35434 23.354332 -23.35434l0 0c6.1939545 0 12.134216 2.4605408 16.514008 6.840332c4.3797836 4.3797607 6.8403244 10.320038 6.8403244 16.514008l0 0c0 12.898224 -10.456093 23.35431 -23.354332 23.35431l0 0c-12.898239 0 -23.354332 -10.456085 -23.354332 -23.35431z" fill-rule="evenodd"/><path fill="#76a5af" d="m112.79965 371.22287l0 0c0 -12.898254 10.456093 -23.35434 23.35434 -23.35434l0 0c6.193939 0 12.134216 2.4605408 16.513992 6.840332c4.3797913 4.3797607 6.840332 10.320038 6.840332 16.514008l0 0c0 12.898224 -10.456085 23.35431 -23.354324 23.35431l0 0c-12.898247 0 -23.35434 -10.456085 -23.35434 -23.35431z" fill-rule="evenodd"/><path stroke="#585757" stroke-width="3.0" stroke-linejoin="round" stroke-linecap="butt" d="m112.79965 371.22287l0 0c0 -12.898254 10.456093 -23.35434 23.35434 -23.35434l0 0c6.193939 0 12.134216 2.4605408 16.513992 6.840332c4.3797913 4.3797607 6.840332 10.320038 6.840332 16.514008l0 0c0 12.898224 -10.456085 23.35431 -23.354324 23.35431l0 0c-12.898247 0 -23.35434 -10.456085 -23.35434 -23.35431z" fill-rule="evenodd"/><path fill="#c3dde2" d="m175.54558 371.22287l0 0c0 -12.898254 10.456085 -23.35434 23.354324 -23.35434l0 0c6.1939545 0 12.134216 2.4605408 16.514008 6.840332c4.3797913 4.3797607 6.840317 10.320038 6.840317 16.514008l0 0c0 12.898224 -10.456085 23.35431 -23.354324 23.35431l0 0c-12.898239 0 -23.354324 -10.456085 -23.354324 -23.35431z" fill-rule="evenodd"/><path stroke="#585757" stroke-width="3.0" stroke-linejoin="round" stroke-linecap="butt" d="m175.54558 371.22287l0 0c0 -12.898254 10.456085 -23.35434 23.354324 -23.35434l0 0c6.1939545 0 12.134216 2.4605408 16.514008 6.840332c4.3797913 4.3797607 6.840317 10.320038 6.840317 16.514008l0 0c0 12.898224 -10.456085 23.35431 -23.354324 23.35431l0 0c-12.898239 0 -23.354324 -10.456085 -23.354324 -23.35431z" fill-rule="evenodd"/><path fill="#c3dde2" d="m238.29149 371.22287l0 0c0 -12.898254 10.456085 -23.35434 23.354324 -23.35434l0 0c6.1939697 0 12.134216 2.4605408 16.514008 6.840332c4.3797913 4.3797607 6.840332 10.320038 6.840332 16.514008l0 0c0 12.898224 -10.456085 23.35431 -23.35434 23.35431l0 0c-12.898239 0 -23.354324 -10.456085 -23.354324 -23.35431z" fill-rule="evenodd"/><path stroke="#585757" stroke-width="3.0" stroke-linejoin="round" stroke-linecap="butt" d="m238.29149 371.22287l0 0c0 -12.898254 10.456085 -23.35434 23.354324 -23.35434l0 0c6.1939697 0 12.134216 2.4605408 16.514008 6.840332c4.3797913 4.3797607 6.840332 10.320038 6.840332 16.514008l0 0c0 12.898224 -10.456085 23.35431 -23.35434 23.35431l0 0c-12.898239 0 -23.354324 -10.456085 -23.354324 -23.35431z" fill-rule="evenodd"/><path fill="#76a5af" d="m301.0374 371.22287l0 0c0 -12.898254 10.456085 -23.35434 23.35434 -23.35434l0 0c6.193939 0 12.134216 2.4605408 16.513977 6.840332c4.3797913 4.3797607 6.840332 10.320038 6.840332 16.514008l0 0c0 12.898224 -10.456085 23.35431 -23.35431 23.35431l0 0c-12.898254 0 -23.35434 -10.456085 -23.35434 -23.35431z" fill-rule="evenodd"/><path stroke="#585757" stroke-width="3.0" stroke-linejoin="round" stroke-linecap="butt" d="m301.0374 371.22287l0 0c0 -12.898254 10.456085 -23.35434 23.35434 -23.35434l0 0c6.193939 0 12.134216 2.4605408 16.513977 6.840332c4.3797913 4.3797607 6.840332 10.320038 6.840332 16.514008l0 0c0 12.898224 -10.456085 23.35431 -23.35431 23.35431l0 0c-12.898254 0 -23.35434 -10.456085 -23.35434 -23.35431z" fill-rule="evenodd"/><path fill="#c3dde2" d="m363.78333 371.22287l0 0c0 -12.898254 10.456085 -23.35434 23.35434 -23.35434l0 0c6.193939 0 12.134216 2.4605408 16.514008 6.840332c4.3797913 4.3797607 6.8403015 10.320038 6.8403015 16.514008l0 0c0 12.898224 -10.456085 23.35431 -23.35431 23.35431l0 0c-12.898254 0 -23.35434 -10.456085 -23.35434 -23.35431z" fill-rule="evenodd"/><path stroke="#585757" stroke-width="3.0" stroke-linejoin="round" stroke-linecap="butt" d="m363.78333 371.22287l0 0c0 -12.898254 10.456085 -23.35434 23.35434 -23.35434l0 0c6.193939 0 12.134216 2.4605408 16.514008 6.840332c4.3797913 4.3797607 6.8403015 10.320038 6.8403015 16.514008l0 0c0 12.898224 -10.456085 23.35431 -23.35431 23.35431l0 0c-12.898254 0 -23.35434 -10.456085 -23.35434 -23.35431z" fill-rule="evenodd"/><path fill="#585757" d="m426.52924 371.22287l0 0c0 -12.898254 10.456085 -23.35434 23.35434 -23.35434l0 0c6.193939 0 12.134216 2.4605408 16.514008 6.840332c4.3797913 4.3797607 6.840332 10.320038 6.840332 16.514008l0 0c0 12.898224 -10.456085 23.35431 -23.35434 23.35431l0 0c-12.898254 0 -23.35434 -10.456085 -23.35434 -23.35431z" fill-rule="evenodd"/><path stroke="#585757" stroke-width="3.0" stroke-linejoin="round" stroke-linecap="butt" d="m426.52924 371.22287l0 0c0 -12.898254 10.456085 -23.35434 23.35434 -23.35434l0 0c6.193939 0 12.134216 2.4605408 16.514008 6.840332c4.3797913 4.3797607 6.840332 10.320038 6.840332 16.514008l0 0c0 12.898224 -10.456085 23.35431 -23.35434 23.35431l0 0c-12.898254 0 -23.35434 -10.456085 -23.35434 -23.35431z" fill-rule="evenodd"/><path fill="#585757" d="m50.053734 308.4767l0 0c0 -12.898254 10.456093 -23.35434 23.354332 -23.35434l0 0c6.1939545 0 12.134216 2.4605408 16.514008 6.840332c4.3797836 4.3797913 6.8403244 10.320038 6.8403244 16.514008l0 0c0 12.898254 -10.456093 23.35434 -23.354332 23.35434l0 0c-12.898239 0 -23.354332 -10.456085 -23.354332 -23.35434z" fill-rule="evenodd"/><path stroke="#585757" stroke-width="3.0" stroke-linejoin="round" stroke-linecap="butt" d="m50.053734 308.4767l0 0c0 -12.898254 10.456093 -23.35434 23.354332 -23.35434l0 0c6.1939545 0 12.134216 2.4605408 16.514008 6.840332c4.3797836 4.3797913 6.8403244 10.320038 6.8403244 16.514008l0 0c0 12.898254 -10.456093 23.35434 -23.354332 23.35434l0 0c-12.898239 0 -23.354332 -10.456085 -23.354332 -23.35434z" fill-rule="evenodd"/><path fill="#585757" d="m112.79965 308.4767l0 0c0 -12.898254 10.456093 -23.35434 23.35434 -23.35434l0 0c6.193939 0 12.134216 2.4605408 16.513992 6.840332c4.3797913 4.3797913 6.840332 10.320038 6.840332 16.514008l0 0c0 12.898254 -10.456085 23.35434 -23.354324 23.35434l0 0c-12.898247 0 -23.35434 -10.456085 -23.35434 -23.35434z" fill-rule="evenodd"/><path stroke="#585757" stroke-width="3.0" stroke-linejoin="round" stroke-linecap="butt" d="m112.79965 308.4767l0 0c0 -12.898254 10.456093 -23.35434 23.35434 -23.35434l0 0c6.193939 0 12.134216 2.4605408 16.513992 6.840332c4.3797913 4.3797913 6.840332 10.320038 6.840332 16.514008l0 0c0 12.898254 -10.456085 23.35434 -23.354324 23.35434l0 0c-12.898247 0 -23.35434 -10.456085 -23.35434 -23.35434z" fill-rule="evenodd"/><path fill="#585757" d="m175.54558 308.4767l0 0c0 -12.898254 10.456085 -23.35434 23.354324 -23.35434l0 0c6.1939545 0 12.134216 2.4605408 16.514008 6.840332c4.3797913 4.3797913 6.840317 10.320038 6.840317 16.514008l0 0c0 12.898254 -10.456085 23.35434 -23.354324 23.35434l0 0c-12.898239 0 -23.354324 -10.456085 -23.354324 -23.35434z" fill-rule="evenodd"/><path stroke="#585757" stroke-width="3.0" stroke-linejoin="round" stroke-linecap="butt" d="m175.54558 308.4767l0 0c0 -12.898254 10.456085 -23.35434 23.354324 -23.35434l0 0c6.1939545 0 12.134216 2.4605408 16.514008 6.840332c4.3797913 4.3797913 6.840317 10.320038 6.840317 16.514008l0 0c0 12.898254 -10.456085 23.35434 -23.354324 23.35434l0 0c-12.898239 0 -23.354324 -10.456085 -23.354324 -23.35434z" fill-rule="evenodd"/><path fill="#76a5af" d="m238.29149 308.4767l0 0c0 -12.898254 10.456085 -23.35434 23.354324 -23.35434l0 0c6.1939697 0 12.134216 2.4605408 16.514008 6.840332c4.3797913 4.3797913 6.840332 10.320038 6.840332 16.514008l0 0c0 12.898254 -10.456085 23.35434 -23.35434 23.35434l0 0c-12.898239 0 -23.354324 -10.456085 -23.354324 -23.35434z" fill-rule="evenodd"/><path stroke="#585757" stroke-width="3.0" stroke-linejoin="round" stroke-linecap="butt" d="m238.29149 308.4767l0 0c0 -12.898254 10.456085 -23.35434 23.354324 -23.35434l0 0c6.1939697 0 12.134216 2.4605408 16.514008 6.840332c4.3797913 4.3797913 6.840332 10.320038 6.840332 16.514008l0 0c0 12.898254 -10.456085 23.35434 -23.35434 23.35434l0 0c-12.898239 0 -23.354324 -10.456085 -23.354324 -23.35434z" fill-rule="evenodd"/><path fill="#c3dde2" d="m301.0374 308.4767l0 0c0 -12.898254 10.456085 -23.35434 23.35434 -23.35434l0 0c6.193939 0 12.134216 2.4605408 16.513977 6.840332c4.3797913 4.3797913 6.840332 10.320038 6.840332 16.514008l0 0c0 12.898254 -10.456085 23.35434 -23.35431 23.35434l0 0c-12.898254 0 -23.35434 -10.456085 -23.35434 -23.35434z" fill-rule="evenodd"/><path stroke="#585757" stroke-width="3.0" stroke-linejoin="round" stroke-linecap="butt" d="m301.0374 308.4767l0 0c0 -12.898254 10.456085 -23.35434 23.35434 -23.35434l0 0c6.193939 0 12.134216 2.4605408 16.513977 6.840332c4.3797913 4.3797913 6.840332 10.320038 6.840332 16.514008l0 0c0 12.898254 -10.456085 23.35434 -23.35431 23.35434l0 0c-12.898254 0 -23.35434 -10.456085 -23.35434 -23.35434z" fill-rule="evenodd"/><path fill="#76a5af" d="m363.78333 308.4767l0 0c0 -12.898254 10.456085 -23.35434 23.35434 -23.35434l0 0c6.193939 0 12.134216 2.4605408 16.514008 6.840332c4.3797913 4.3797913 6.8403015 10.320038 6.8403015 16.514008l0 0c0 12.898254 -10.456085 23.35434 -23.35431 23.35434l0 0c-12.898254 0 -23.35434 -10.456085 -23.35434 -23.35434z" fill-rule="evenodd"/><path stroke="#585757" stroke-width="3.0" stroke-linejoin="round" stroke-linecap="butt" d="m363.78333 308.4767l0 0c0 -12.898254 10.456085 -23.35434 23.35434 -23.35434l0 0c6.193939 0 12.134216 2.4605408 16.514008 6.840332c4.3797913 4.3797913 6.8403015 10.320038 6.8403015 16.514008l0 0c0 12.898254 -10.456085 23.35434 -23.35431 23.35434l0 0c-12.898254 0 -23.35434 -10.456085 -23.35434 -23.35434z" fill-rule="evenodd"/><path fill="#585757" d="m426.52924 308.4767l0 0c0 -12.898254 10.456085 -23.35434 23.35434 -23.35434l0 0c6.193939 0 12.134216 2.4605408 16.514008 6.840332c4.3797913 4.3797913 6.840332 10.320038 6.840332 16.514008l0 0c0 12.898254 -10.456085 23.35434 -23.35434 23.35434l0 0c-12.898254 0 -23.35434 -10.456085 -23.35434 -23.35434z" fill-rule="evenodd"/><path stroke="#585757" stroke-width="3.0" stroke-linejoin="round" stroke-linecap="butt" d="m426.52924 308.4767l0 0c0 -12.898254 10.456085 -23.35434 23.35434 -23.35434l0 0c6.193939 0 12.134216 2.4605408 16.514008 6.840332c4.3797913 4.3797913 6.840332 10.320038 6.840332 16.514008l0 0c0 12.898254 -10.456085 23.35434 -23.35434 23.35434l0 0c-12.898254 0 -23.35434 -10.456085 -23.35434 -23.35434z" fill-rule="evenodd"/></g></svg>