<svg version="1.1" viewBox="0.0 0.0 114.00787401574803 100.0" fill="none" stroke="none" stroke-linecap="square" stroke-miterlimit="10" xmlns:xlink="http://www.w3.org/1999/xlink" xmlns="http://www.w3.org/2000/svg"><clipPath id="p.0"><path d="m0 0l114.00787 0l0 100.0l-114.00787 0l0 -100.0z" clip-rule="nonzero"/></clipPath><g clip-path="url(#p.0)"><path fill="#000000" fill-opacity="0.0" d="m0 0l114.00787 0l0 100.0l-114.00787 0z" fill-rule="evenodd"/><path fill="#11807e" d="m25.07189 57.86191l-11.970401 -6.271202l-1.1578665 -1.982933l0.33973312 -10.999733l39.773067 -26.551199l9.0826645 -0.46106625l40.924 27.012264l-0.4610672 11.956535l-13.450668 6.666401z" fill-rule="evenodd"/><path fill="#17a3a1" d="m26.101871 49.111904l0.49573326 22.5368l0.32933235 0.8250656l24.765865 15.9328l10.237068 0l25.87867 -16.9208l0 -21.961334l-1.7333374 -2.5583992l-8.091202 -4.8706665l-2.229065 -0.74186707l-9.079201 -2.2290688l-8.170933 0l-8.999466 -0.32933044l-5.0336 0.9914665l-11.807465 3.5463982l-2.8877354 1.982933l-2.3954659 1.4039993z" fill-rule="evenodd"/><path fill="#1fc7c4" d="m30.582188 50.70426l8.252113 -0.39641953l4.2043495 2.5384026l5.473648 2.854866l3.3314972 2.3818321l2.9350471 3.5677528l0.15991211 2.778244l0.63298416 8.328087l-0.63298416 11.819214l-1.7457047 0.15990448l-22.767445 -13.32827l-1.2692986 -1.9820786l-0.079956055 -16.103188l0.39644814 -1.5057182z" fill-rule="evenodd"/><path fill="#16b9b6" d="m58.58537 83.53577l0.33280182 -16.9208l-0.9914665 -2.0661316l-0.74186707 1.5703964l-0.16640091 16.095734l0.24613571 1.8997345z" fill-rule="evenodd"/><path fill="#45ccca" d="m12.858848 38.26484l1.0330667 5.976532l38.9688 -26.669065l2.873867 -0.34320068l3.4493332 -0.11440086l3.3349342 2.6416016l37.58906 23.680798l0 -5.4045334l-38.27893 -25.171465l-8.2784 0.11439991l-40.230667 26.554665z" fill-rule="evenodd"/><path fill="#e9c068" d="m90.7985 31.022877l0.6898651 37.817867l-2.412796 15.749069l3.4458618 2.6450653l4.943466 -0.4610672l2.645073 -1.6085358l-3.1026688 -17.589867l0.918663 -1.1474686l-1.2653275 -3.678131l-0.34320068 -28.624268z" fill-rule="evenodd"/></g></svg>