<svg version="1.1" viewBox="0.0 0.0 960.0 720.0" fill="none" stroke="none" stroke-linecap="square" stroke-miterlimit="10" xmlns:xlink="http://www.w3.org/1999/xlink" xmlns="http://www.w3.org/2000/svg"><clipPath id="p.0"><path d="m0 0l960.0 0l0 720.0l-960.0 0l0 -720.0z" clip-rule="nonzero"/></clipPath><g clip-path="url(#p.0)"><path fill="#000000" fill-opacity="0.0" d="m0 0l960.0 0l0 720.0l-960.0 0z" fill-rule="evenodd"/><path fill="#9bd2d2" d="m659.0509 287.8622l-41.224243 95.83789l0 17.326447l56.939087 0l0 28.36081l23.091797 0l0 -28.36081l15.8078 0l0 -21.572845l-15.8078 0l0 -37.90741l-23.091797 0l0 37.90741l-30.809753 0l35.4281 -82.97476l-20.33319 -8.61673z" fill-rule="evenodd"/><path stroke="#8cabab" stroke-width="2.0" stroke-linejoin="round" stroke-linecap="butt" d="m659.0509 287.8622l-41.224243 95.83789l0 17.326447l56.939087 0l0 28.36081l23.091797 0l0 -28.36081l15.8078 0l0 -21.572845l-15.8078 0l0 -37.90741l-23.091797 0l0 37.90741l-30.809753 0l35.4281 -82.97476l-20.33319 -8.61673z" fill-rule="evenodd"/><path fill="#a6dcee" d="m522.27484 335.6346c-9.043823 0 -16.941406 2.1661072 -23.692688 6.498352c-6.733246 4.3141785 -11.896027 10.108551 -15.488281 17.383087c-3.5742188 7.274536 -5.361328 15.271118 -5.361328 23.989746c0 9.260132 1.7600403 17.50943 5.2800903 24.747864c3.5381165 7.220398 8.59256 12.879364 15.163361 16.97696c6.588806 4.0794983 14.233673 6.1192627 22.93454 6.1192627c5.6501465 0 10.713623 -0.5866394 15.19043 -1.7599487c4.494812 -1.1552734 9.206299 -3.0957336 14.134399 -5.8214417l-6.4714966 -17.518494c-5.036377 2.6354675 -8.953613 4.3954163 -11.751587 5.2799377c-2.7980347 0.86642456 -6.164612 1.2996521 -10.0998535 1.2996521c-4.765625 0 -8.9175415 -1.2906494 -12.455627 -3.8719177c-3.52005 -2.5812988 -6.3000183 -6.119293 -8.339844 -10.613983c-2.0398254 -4.512726 -3.0597534 -9.57605 -3.0597534 -15.18988c0 -9.187958 2.3828125 -16.318085 7.1484375 -21.390411c4.7836914 -5.0723267 10.677551 -7.60849 17.681519 -7.60849c3.2312622 0 6.1556396 0.33395386 8.773132 1.001831c2.635498 0.6678772 6.299988 2.1751404 10.993408 4.521759l6.254883 -17.59967c-4.982239 -2.4188538 -9.431946 -4.097595 -13.349182 -5.0362244c-3.9171753 -0.93865967 -8.412048 -1.4079895 -13.484558 -1.4079895z" fill-rule="evenodd"/><path stroke="#8cabab" stroke-width="2.0" stroke-linejoin="round" stroke-linecap="butt" d="m522.27484 335.6346c-9.043823 0 -16.941406 2.1661072 -23.692688 6.498352c-6.733246 4.3141785 -11.896027 10.108551 -15.488281 17.383087c-3.5742188 7.274536 -5.361328 15.271118 -5.361328 23.989746c0 9.260132 1.7600403 17.50943 5.2800903 24.747864c3.5381165 7.220398 8.59256 12.879364 15.163361 16.97696c6.588806 4.0794983 14.233673 6.1192627 22.93454 6.1192627c5.6501465 0 10.713623 -0.5866394 15.19043 -1.7599487c4.494812 -1.1552734 9.206299 -3.0957336 14.134399 -5.8214417l-6.4714966 -17.518494c-5.036377 2.6354675 -8.953613 4.3954163 -11.751587 5.2799377c-2.7980347 0.86642456 -6.164612 1.2996521 -10.0998535 1.2996521c-4.765625 0 -8.9175415 -1.2906494 -12.455627 -3.8719177c-3.52005 -2.5812988 -6.3000183 -6.119293 -8.339844 -10.613983c-2.0398254 -4.512726 -3.0597534 -9.57605 -3.0597534 -15.18988c0 -9.187958 2.3828125 -16.318085 7.1484375 -21.390411c4.7836914 -5.0723267 10.677551 -7.60849 17.681519 -7.60849c3.2312622 0 6.1556396 0.33395386 8.773132 1.001831c2.635498 0.6678772 6.299988 2.1751404 10.993408 4.521759l6.254883 -17.59967c-4.982239 -2.4188538 -9.431946 -4.097595 -13.349182 -5.0362244c-3.9171753 -0.93865967 -8.412048 -1.4079895 -13.484558 -1.4079895z" fill-rule="evenodd"/><path fill="#a6dcee" d="m169.43666 354.154c4.7656097 0 9.025757 1.3357544 12.780472 4.0072937c3.772766 2.6535034 6.778351 6.200531 9.016739 10.641052c2.2564392 4.4405518 3.3846588 9.3414 3.3846588 14.702515c0 8.808899 -2.211319 15.902924 -6.6339417 21.282104c-4.4226227 5.361145 -10.605255 8.041718 -18.547928 8.041718c-4.7836456 0 -9.052826 -1.3177185 -12.807541 -3.953186c-3.754715 -2.653473 -6.7602997 -6.2546387 -9.016739 -10.803497c-2.238388 -4.5668945 -3.3575745 -9.539917 -3.3575745 -14.919128c0 -8.899109 2.2113037 -15.957062 6.6339264 -21.173767c4.4226227 -5.216736 10.60527 -7.8251038 18.547928 -7.8251038zm0 -18.520294c-8.538361 0 -16.291489 1.9494934 -23.259369 5.8485107c-6.949829 3.8990173 -12.428467 9.43161 -16.435898 16.59787c-3.9893875 7.1662292 -5.9840775 15.641174 -5.9840775 25.424774c0 9.296265 1.9585876 17.56363 5.8757706 24.802032c3.9352264 7.220398 9.377762 12.870361 16.32759 16.94986c6.9678802 4.061493 14.793213 6.092224 23.475983 6.092224c8.682785 0 16.472 -2.003662 23.367691 -6.0109863c6.8956757 -4.007324 12.338196 -9.621155 16.32759 -16.841553c3.98938 -7.238434 5.98407 -15.68631 5.98407 -25.343567c0 -9.657257 -2.0307922 -18.041931 -6.0923767 -25.154022c-4.0615997 -7.130127 -9.540237 -12.635681 -16.435913 -16.516632c-6.8776245 -3.8990173 -14.594635 -5.8485107 -23.151062 -5.8485107z" fill-rule="evenodd"/><path stroke="#8cabab" stroke-width="2.0" stroke-linejoin="round" stroke-linecap="butt" d="m169.43666 354.154c4.7656097 0 9.025757 1.3357544 12.780472 4.0072937c3.772766 2.6535034 6.778351 6.200531 9.016739 10.641052c2.2564392 4.4405518 3.3846588 9.3414 3.3846588 14.702515c0 8.808899 -2.211319 15.902924 -6.6339417 21.282104c-4.4226227 5.361145 -10.605255 8.041718 -18.547928 8.041718c-4.7836456 0 -9.052826 -1.3177185 -12.807541 -3.953186c-3.754715 -2.653473 -6.7602997 -6.2546387 -9.016739 -10.803497c-2.238388 -4.5668945 -3.3575745 -9.539917 -3.3575745 -14.919128c0 -8.899109 2.2113037 -15.957062 6.6339264 -21.173767c4.4226227 -5.216736 10.60527 -7.8251038 18.547928 -7.8251038zm0 -18.520294c-8.538361 0 -16.291489 1.9494934 -23.259369 5.8485107c-6.949829 3.8990173 -12.428467 9.43161 -16.435898 16.59787c-3.9893875 7.1662292 -5.9840775 15.641174 -5.9840775 25.424774c0 9.296265 1.9585876 17.56363 5.8757706 24.802032c3.9352264 7.220398 9.377762 12.870361 16.32759 16.94986c6.9678802 4.061493 14.793213 6.092224 23.475983 6.092224c8.682785 0 16.472 -2.003662 23.367691 -6.0109863c6.8956757 -4.007324 12.338196 -9.621155 16.32759 -16.841553c3.98938 -7.238434 5.98407 -15.68631 5.98407 -25.343567c0 -9.657257 -2.0307922 -18.041931 -6.0923767 -25.154022c-4.0615997 -7.130127 -9.540237 -12.635681 -16.435913 -16.516632c-6.8776245 -3.8990173 -14.594635 -5.8485107 -23.151062 -5.8485107z" fill-rule="evenodd"/><path fill="#a6dcee" d="m354.48212 333.8405c-7.3286133 0 -13.651154 1.7444458 -18.967651 5.2333374c-5.298004 3.4704285 -8.03009 5.371765 -8.196228 5.7040405l0.055389404 -8.888336l-20.102936 0l0 93.784546l20.601349 0l0 -60.39093c2.8612976 -4.301117 6.433319 -8.149963 10.716034 -11.54657c4.282715 -3.415039 8.731567 -5.1225586 13.346558 -5.1225586c4.4673157 0 7.9747314 1.6429138 10.522217 4.9287415c2.5474548 3.2673645 3.8211975 7.7715454 3.8211975 13.512512l0 58.618805l20.629059 0l0 -60.33557c0 -10.485107 -2.7044067 -19.022705 -8.113159 -25.612823c-5.39032 -6.5901184 -13.494263 -9.885193 -24.311829 -9.885193z" fill-rule="evenodd"/><path stroke="#8cabab" stroke-width="2.0" stroke-linejoin="round" stroke-linecap="butt" d="m354.48212 333.8405c-7.3286133 0 -13.651154 1.7444458 -18.967651 5.2333374c-5.298004 3.4704285 -8.03009 5.371765 -8.196228 5.7040405l0.055389404 -8.888336l-20.102936 0l0 93.784546l20.601349 0l0 -60.39093c2.8612976 -4.301117 6.433319 -8.149963 10.716034 -11.54657c4.282715 -3.415039 8.731567 -5.1225586 13.346558 -5.1225586c4.4673157 0 7.9747314 1.6429138 10.522217 4.9287415c2.5474548 3.2673645 3.8211975 7.7715454 3.8211975 13.512512l0 58.618805l20.629059 0l0 -60.33557c0 -10.485107 -2.7044067 -19.022705 -8.113159 -25.612823c-5.39032 -6.5901184 -13.494263 -9.885193 -24.311829 -9.885193z" fill-rule="evenodd"/><path fill="#a6dcee" d="m264.58173 334.7056c-7.3286133 0 -13.651169 1.7444458 -18.967651 5.2333374c-5.2980194 3.470398 -8.03009 5.371765 -8.196228 5.7040405l0.055374146 -8.888367l-20.102936 0l0 93.78458l20.601349 0l0 -60.39096c2.8612976 -4.3010864 6.433319 -8.149963 10.716034 -11.546539c4.282715 -3.415039 8.731583 -5.1225586 13.346573 -5.1225586c4.4673157 0 7.9747314 1.6429138 10.522186 4.9287415c2.5474854 3.2673645 3.821228 7.7715454 3.821228 13.512512l0 58.618805l20.629059 0l0 -60.33557c0 -10.485107 -2.7044067 -19.022736 -8.11319 -25.612854c-5.39032 -6.5901184 -13.494263 -9.885162 -24.311798 -9.885162z" fill-rule="evenodd"/><path stroke="#8cabab" stroke-width="2.0" stroke-linejoin="round" stroke-linecap="butt" d="m264.58173 334.7056c-7.3286133 0 -13.651169 1.7444458 -18.967651 5.2333374c-5.2980194 3.470398 -8.03009 5.371765 -8.196228 5.7040405l0.055374146 -8.888367l-20.102936 0l0 93.78458l20.601349 0l0 -60.39096c2.8612976 -4.3010864 6.433319 -8.149963 10.716034 -11.546539c4.282715 -3.415039 8.731583 -5.1225586 13.346573 -5.1225586c4.4673157 0 7.9747314 1.6429138 10.522186 4.9287415c2.5474854 3.2673645 3.821228 7.7715454 3.821228 13.512512l0 58.618805l20.629059 0l0 -60.33557c0 -10.485107 -2.7044067 -19.022736 -8.11319 -25.612854c-5.39032 -6.5901184 -13.494263 -9.885162 -24.311798 -9.885162z" fill-rule="evenodd"/><path fill="#a6dcee" d="m433.15784 353.3795c6.790802 0 12.076599 2.0463867 15.857422 6.139221c3.7991638 4.074463 5.698761 9.1675415 5.698761 15.279236l-42.64438 0c0.6423645 -6.148407 2.8723145 -11.250641 6.68985 -15.306763c3.8358765 -4.074463 8.635345 -6.1116943 14.398346 -6.1116943zm0.33035278 -18.500305c-8.424255 0 -15.839081 2.1473694 -22.244446 6.4420776c-6.387024 4.2947083 -11.342468 10.103577 -14.866364 17.426605c-3.5238647 7.3230286 -5.285797 15.591248 -5.285797 24.804688c0 15.214996 3.9368286 27.126404 11.810486 35.73416c7.8919983 8.607758 18.537048 12.911652 31.93509 12.911652c6.5338745 0 12.425354 -0.61483765 17.674438 -1.8445129c5.249115 -1.2296753 10.672577 -3.0925598 16.270386 -5.588623l-4.9554443 -18.197449c-5.46933 2.4777222 -10.14032 4.2304688 -14.012909 5.2582703c-3.872589 1.0278015 -8.240723 1.541687 -13.104401 1.541687c-7.066101 0 -12.728149 -2.073944 -16.986176 -6.2218323c-4.2579956 -4.1662292 -6.7265625 -9.066589 -7.4056396 -14.701111l60.951996 0c0.513916 -5.414276 0.7708435 -10.1311035 0.7708435 -14.150513c0 -7.818573 -1.5049744 -15.031464 -4.5149536 -21.638702c-3.0099792 -6.6072693 -7.524933 -11.883881 -13.544891 -15.8298645c-6.001587 -3.9643555 -13.498993 -5.946533 -22.492218 -5.946533z" fill-rule="evenodd"/><path stroke="#8cabab" stroke-width="2.0" stroke-linejoin="round" stroke-linecap="butt" d="m433.15784 353.3795c6.790802 0 12.076599 2.0463867 15.857422 6.139221c3.7991638 4.074463 5.698761 9.1675415 5.698761 15.279236l-42.64438 0c0.6423645 -6.148407 2.8723145 -11.250641 6.68985 -15.306763c3.8358765 -4.074463 8.635345 -6.1116943 14.398346 -6.1116943zm0.33035278 -18.500305c-8.424255 0 -15.839081 2.1473694 -22.244446 6.4420776c-6.387024 4.2947083 -11.342468 10.103577 -14.866364 17.426605c-3.5238647 7.3230286 -5.285797 15.591248 -5.285797 24.804688c0 15.214996 3.9368286 27.126404 11.810486 35.73416c7.8919983 8.607758 18.537048 12.911652 31.93509 12.911652c6.5338745 0 12.425354 -0.61483765 17.674438 -1.8445129c5.249115 -1.2296753 10.672577 -3.0925598 16.270386 -5.588623l-4.9554443 -18.197449c-5.46933 2.4777222 -10.14032 4.2304688 -14.012909 5.2582703c-3.872589 1.0278015 -8.240723 1.541687 -13.104401 1.541687c-7.066101 0 -12.728149 -2.073944 -16.986176 -6.2218323c-4.2579956 -4.1662292 -6.7265625 -9.066589 -7.4056396 -14.701111l60.951996 0c0.513916 -5.414276 0.7708435 -10.1311035 0.7708435 -14.150513c0 -7.818573 -1.5049744 -15.031464 -4.5149536 -21.638702c-3.0099792 -6.6072693 -7.524933 -11.883881 -13.544891 -15.8298645c-6.001587 -3.9643555 -13.498993 -5.946533 -22.492218 -5.946533z" fill-rule="evenodd"/><path fill="#a6dcee" d="m570.1032 312.58243l-3.1464844 27.34134l-15.623657 0l0 18.20044l14.999817 0l0 38.05545c0 10.867828 2.6582031 19.330627 7.9746094 25.388397c5.3164062 6.039673 12.531494 9.05954 21.645325 9.05954c4.394165 0 8.5894165 -0.6781006 12.585754 -2.0343323c3.996338 -1.3562012 7.793762 -3.1012268 11.392273 -5.2349854l-5.913147 -17.034088c-3.7974243 2.2241821 -6.835388 3.7431335 -9.113831 4.556885c-2.2784424 0.7956543 -4.656372 1.1934509 -7.133728 1.1934509c-3.092163 0 -5.741333 -1.0307007 -7.9474487 -3.092163c-2.1880493 -2.0614624 -3.2821045 -5.940216 -3.2821045 -11.636353l0 -39.2218l24.005188 0l0 -18.20044l-24.005188 0l0 -27.34134z" fill-rule="evenodd"/><path stroke="#8cabab" stroke-width="2.0" stroke-linejoin="round" stroke-linecap="butt" d="m570.1032 312.58243l-3.1464844 27.34134l-15.623657 0l0 18.20044l14.999817 0l0 38.05545c0 10.867828 2.6582031 19.330627 7.9746094 25.388397c5.3164062 6.039673 12.531494 9.05954 21.645325 9.05954c4.394165 0 8.5894165 -0.6781006 12.585754 -2.0343323c3.996338 -1.3562012 7.793762 -3.1012268 11.392273 -5.2349854l-5.913147 -17.034088c-3.7974243 2.2241821 -6.835388 3.7431335 -9.113831 4.556885c-2.2784424 0.7956543 -4.656372 1.1934509 -7.133728 1.1934509c-3.092163 0 -5.741333 -1.0307007 -7.9474487 -3.092163c-2.1880493 -2.0614624 -3.2821045 -5.940216 -3.2821045 -11.636353l0 -39.2218l24.005188 0l0 -18.20044l-24.005188 0l0 -27.34134z" fill-rule="evenodd"/><path fill="#a6dcee" d="m88.54029 304.71143c-11.962723 0 -22.409203 2.865265 -31.339458 8.595825c-8.906376 5.7066956 -15.735394 13.371307 -20.48705 22.993896c-4.7277794 9.622559 -7.091671 20.200226 -7.091671 31.732971c0 12.249084 2.3280735 23.16101 6.9842224 32.73584c4.680027 9.550903 11.365776 17.036469 20.057251 22.456635c8.715351 5.3962708 18.827549 8.094421 30.33659 8.094421c7.4737167 0 14.17141 -0.7760315 20.093071 -2.328064c5.9455414 -1.5281372 12.177612 -4.09494 18.69622 -7.7004395l-8.5601425 -23.172943c-6.661873 3.486084 -11.84333 5.8141174 -15.544373 6.9841003c-3.7010422 1.1461182 -8.154228 1.7191772 -13.359566 1.7191772c-6.3037033 0 -11.79557 -1.7072144 -16.475594 -5.1216736c-4.656151 -3.4144897 -8.333313 -8.094421 -11.03149 -14.039886c-2.6981773 -5.96933 -4.047268 -12.666931 -4.047268 -20.092773c0 -12.153564 3.1518555 -21.585114 9.455559 -28.294647c6.327591 -6.7095337 14.12365 -10.064301 23.388191 -10.064301c4.2741013 0 8.142288 0.44171143 11.604553 1.3251953c3.4861374 0.88345337 8.333305 2.8772278 14.541504 5.981262l8.273621 -23.280396c-6.5902405 -3.1995544 -12.4760895 -5.420166 -17.657547 -6.6617737c-5.1814575 -1.2416382 -11.126999 -1.8624268 -17.836624 -1.8624268z" fill-rule="evenodd"/><path stroke="#8cabab" stroke-width="2.0" stroke-linejoin="round" stroke-linecap="butt" d="m88.54029 304.71143c-11.962723 0 -22.409203 2.865265 -31.339458 8.595825c-8.906376 5.7066956 -15.735394 13.371307 -20.48705 22.993896c-4.7277794 9.622559 -7.091671 20.200226 -7.091671 31.732971c0 12.249084 2.3280735 23.16101 6.9842224 32.73584c4.680027 9.550903 11.365776 17.036469 20.057251 22.456635c8.715351 5.3962708 18.827549 8.094421 30.33659 8.094421c7.4737167 0 14.17141 -0.7760315 20.093071 -2.328064c5.9455414 -1.5281372 12.177612 -4.09494 18.69622 -7.7004395l-8.5601425 -23.172943c-6.661873 3.486084 -11.84333 5.8141174 -15.544373 6.9841003c-3.7010422 1.1461182 -8.154228 1.7191772 -13.359566 1.7191772c-6.3037033 0 -11.79557 -1.7072144 -16.475594 -5.1216736c-4.656151 -3.4144897 -8.333313 -8.094421 -11.03149 -14.039886c-2.6981773 -5.96933 -4.047268 -12.666931 -4.047268 -20.092773c0 -12.153564 3.1518555 -21.585114 9.455559 -28.294647c6.327591 -6.7095337 14.12365 -10.064301 23.388191 -10.064301c4.2741013 0 8.142288 0.44171143 11.604553 1.3251953c3.4861374 0.88345337 8.333305 2.8772278 14.541504 5.981262l8.273621 -23.280396c-6.5902405 -3.1995544 -12.4760895 -5.420166 -17.657547 -6.6617737c-5.1814575 -1.2416382 -11.126999 -1.8624268 -17.836624 -1.8624268z" fill-rule="evenodd"/><path fill="#bbe7e7" d="m720.1913 409.97537c-2.474121 0 -4.4578857 0.71881104 -5.951294 2.1564636c-1.4822388 1.4376526 -2.2233887 3.2263489 -2.2233887 5.3661194c0 2.1397705 0.7411499 3.9284668 2.2233887 5.3661194c1.4934082 1.4376526 3.4771729 2.1564636 5.951294 2.1564636c2.474121 0 4.4523315 -0.71881104 5.9345703 -2.1564636c1.4934082 -1.4376526 2.2401123 -3.2263489 2.2401123 -5.3661194c0 -2.1397705 -0.7467041 -3.9284668 -2.2401123 -5.3661194c-1.4822388 -1.4376526 -3.4604492 -2.1564636 -5.9345703 -2.1564636z" fill-rule="evenodd"/><path fill="#bbe7e7" d="m763.72266 369.20294c-4.1792603 0 -7.8236084 0.7021179 -10.932983 2.1063232c-3.109375 1.4042053 -5.7005615 3.3545227 -7.7734985 5.850891c-2.072876 2.48526 -3.6275635 5.393982 -4.6640625 8.726196c-1.036438 3.321106 -1.5546875 6.9040833 -1.5546875 10.748962l0 1.4543762c0 3.811432 0.5182495 7.3832703 1.5546875 10.715485c1.036499 3.3210754 2.5911865 6.229828 4.6640625 8.726196c2.072937 2.48526 4.6696777 4.4299927 7.790222 5.834198c3.1316528 1.4042053 6.803833 2.1063232 11.016541 2.1063232c4.1793213 0 7.9573975 -0.84140015 11.3342285 -2.524231c3.376831 -1.6940002 6.0682983 -4.017639 8.074341 -6.9709473c2.0061035 -2.964447 3.0258179 -6.352417 3.0592651 -10.163849l-13.591003 0c-0.033447266 1.7051086 -0.44580078 3.1873474 -1.2370605 4.446686c-0.78015137 1.2481995 -1.8556519 2.2177734 -3.2264404 2.908722c-1.3707886 0.6798401 -2.9421997 1.0197449 -4.7142334 1.0197449c-2.1397705 0 -3.878357 -0.43463135 -5.2156982 -1.3039246c-1.3374023 -0.8692627 -2.3850098 -2.0561829 -3.1428223 -3.5606995c-0.7467041 -1.5045166 -1.2537842 -3.2263489 -1.5213013 -5.165497c-0.26745605 -1.939148 -0.40118408 -3.9618835 -0.40118408 -6.068207l0 -1.4543762c0 -2.1063232 0.13928223 -4.11792 0.4179077 -6.03479c0.28979492 -1.928009 0.8024292 -3.6498413 1.5379639 -5.1655273c0.7355957 -1.5267944 1.7720337 -2.7304077 3.109436 -3.6108398c1.3373413 -0.8915405 3.059204 -1.3373413 5.1655884 -1.3373413c1.9725952 0 3.6331787 0.44580078 4.9816895 1.3373413c1.3596191 0.8804321 2.3961182 2.0561829 3.109375 3.5272827c0.72442627 1.4710693 1.1033325 3.109314 1.1367798 4.914734l13.591003 0c-0.033447266 -4.3129272 -1.0141602 -8.046356 -2.9421997 -11.200287c-1.9169312 -3.1650696 -4.5582275 -5.6001587 -7.92395 -7.3052673c-3.3545532 -1.7051086 -7.255188 -2.5576782 -11.701965 -2.5576782z" fill-rule="evenodd"/><path fill="#bbe7e7" d="m817.9363 380.48682c2.0394897 0 3.7780762 0.43463135 5.2157593 1.3039246c1.4376221 0.8692627 2.5966797 2.0673218 3.4771118 3.5941162c0.89160156 1.5156555 1.5435791 3.2542114 1.9559326 5.2156677c0.4234619 1.9502869 0.6352539 4.0287476 0.6352539 6.235382l0 1.0531616c0 2.2734985 -0.21179199 4.3965454 -0.6352539 6.3691406c-0.41235352 1.9725647 -1.0531616 3.7055664 -1.9224854 5.198944c-0.8692627 1.4822083 -2.022766 2.6412659 -3.4604492 3.4771118c-1.4376831 0.8358154 -3.159546 1.2537537 -5.1655884 1.2537537c-2.072937 0 -3.828186 -0.41793823 -5.265869 -1.2537537c-1.4376831 -0.83584595 -2.602295 -1.9949036 -3.4938965 -3.4771118c-0.8804321 -1.4933777 -1.5212402 -3.2263794 -1.9224854 -5.198944c-0.40118408 -1.9725952 -0.60180664 -4.095642 -0.60180664 -6.3691406l0 -1.0531616c0 -2.2066345 0.20062256 -4.285095 0.60180664 -6.235382c0.40124512 -1.9614563 1.0420532 -3.7000122 1.9224854 -5.2156677c0.89160156 -1.5267944 2.045044 -2.7248535 3.4604492 -3.5941162c1.4265137 -0.8692932 3.159546 -1.3039246 5.1990356 -1.3039246zm0 -11.2838745c-4.1124268 0 -7.756775 0.6965332 -10.932983 2.0895996c-3.1762695 1.3819275 -5.851013 3.3099365 -8.024231 5.784027c-2.1732178 2.474121 -3.828247 5.393982 -4.964966 8.759644c-1.1367798 3.3545227 -1.7052002 7.0210876 -1.7052002 10.999695l0 1.0531616c0 3.9451904 0.5684204 7.6006165 1.7052002 10.966278c1.1367188 3.3544922 2.7973022 6.2799683 4.9816895 8.776337c2.1954956 2.4852295 4.886963 4.413269 8.074341 5.784027c3.1985474 1.3707886 6.854004 2.0561829 10.966431 2.0561829c4.1124268 0 7.756775 -0.6853943 10.932983 -2.0561829c3.1762695 -1.370758 5.8565674 -3.2987976 8.040955 -5.784027c2.1954956 -2.4963684 3.8616333 -5.4218445 4.998413 -8.776337c1.1367798 -3.3656616 1.7051392 -7.0210876 1.7051392 -10.966278l0 -1.0531616c0 -3.9786072 -0.5683594 -7.645172 -1.7051392 -10.999695c-1.1367798 -3.3656616 -2.8029175 -6.2855225 -4.998413 -8.759644c-2.1843872 -2.4740906 -4.8814087 -4.4020996 -8.091064 -5.784027c-3.2097168 -1.3930664 -6.8707275 -2.0895996 -10.983154 -2.0895996z" fill-rule="evenodd"/><path fill="#bbe7e7" d="m882.28046 369.20294c-3.4771729 0 -6.536377 0.651947 -9.177673 1.9558716c-2.5527344 1.2601929 -4.7099 3.0148315 -6.4714966 5.2639465l0 0l-0.49957275 -6.216797l-13.591003 0l0 54.26291l14.493713 0l0 -38.500305l0 0c0.20263672 -0.37683105 0.41992188 -0.7385864 0.65197754 -1.0852051c0.90270996 -1.3596497 2.045044 -2.4239502 3.427002 -3.1929321c1.3931274 -0.76898193 3.0258179 -1.1534729 4.8981323 -1.1534729c1.7051392 0 3.1651 0.26748657 4.379883 0.8024292c1.2259521 0.5349426 2.1732178 1.4710693 2.841919 2.8084412c0.6687012 1.3373413 1.0030518 3.2430725 1.0030518 5.717163l0 34.60388l14.4435425 0l0 -36.20871c0 -0.5423279 -0.010314941 -1.0723267 -0.03100586 -1.5899353l0 0c0.3562622 -0.82180786 0.7845459 -1.57901 1.28479 -2.2716675c0.86932373 -1.2036133 1.9559326 -2.1453247 3.2598877 -2.8251343c1.303894 -0.690979 2.8251343 -1.0364685 4.5637207 -1.0364685c1.6717529 0 3.1149902 0.26190186 4.329773 0.78570557c1.2258911 0.5126648 2.1620483 1.4320679 2.8084717 2.7582703c0.65753174 1.3150635 0.9863281 3.2263794 0.9863281 5.7338867l0 34.654053l14.493713 0l0 -34.654053c0 -3.7780151 -0.41235352 -6.9709167 -1.2370605 -9.578766c-0.81359863 -2.6078186 -1.9837646 -4.7197266 -3.51062 -6.335663c-1.515686 -1.6271057 -3.3433838 -2.8140259 -5.4832153 -3.5606995c-2.1397705 -0.757843 -4.513611 -1.1367493 -7.12146 -1.1367493c-3.4102783 0 -6.4193726 0.6463928 -9.027283 1.939148c-2.6078491 1.2816467 -4.7922363 3.0758972 -6.5531006 5.382843c-0.25830078 0.34054565 -0.5072632 0.68911743 -0.7468262 1.0457153l0 0c-0.70526123 -1.5375061 -1.576355 -2.844513 -2.6132812 -3.9210205c-1.4488525 -1.5267944 -3.1762695 -2.6468506 -5.182312 -3.3601074c-2.0060425 -0.72439575 -4.2127075 -1.0865784 -6.619995 -1.0865784z" fill-rule="evenodd"/><path stroke="#8cabab" stroke-width="2.0" stroke-linejoin="round" stroke-linecap="butt" d="m720.1913 409.97537c-2.474121 0 -4.4578857 0.71881104 -5.951294 2.1564636c-1.4822388 1.4376526 -2.2233887 3.2263489 -2.2233887 5.3661194c0 2.1397705 0.7411499 3.9284668 2.2233887 5.3661194c1.4934082 1.4376526 3.4771729 2.1564636 5.951294 2.1564636c2.474121 0 4.4523315 -0.71881104 5.9345703 -2.1564636c1.4934082 -1.4376526 2.2401123 -3.2263489 2.2401123 -5.3661194c0 -2.1397705 -0.7467041 -3.9284668 -2.2401123 -5.3661194c-1.4822388 -1.4376526 -3.4604492 -2.1564636 -5.9345703 -2.1564636z" fill-rule="evenodd"/><path stroke="#8cabab" stroke-width="2.0" stroke-linejoin="round" stroke-linecap="butt" d="m763.72266 369.20294c-4.1792603 0 -7.8236084 0.7021179 -10.932983 2.1063232c-3.109375 1.4042053 -5.7005615 3.3545227 -7.7734985 5.850891c-2.072876 2.48526 -3.6275635 5.393982 -4.6640625 8.726196c-1.036438 3.321106 -1.5546875 6.9040833 -1.5546875 10.748962l0 1.4543762c0 3.811432 0.5182495 7.3832703 1.5546875 10.715485c1.036499 3.3210754 2.5911865 6.229828 4.6640625 8.726196c2.072937 2.48526 4.6696777 4.4299927 7.790222 5.834198c3.1316528 1.4042053 6.803833 2.1063232 11.016541 2.1063232c4.1793213 0 7.9573975 -0.84140015 11.3342285 -2.524231c3.376831 -1.6940002 6.0682983 -4.017639 8.074341 -6.9709473c2.0061035 -2.964447 3.0258179 -6.352417 3.0592651 -10.163849l-13.591003 0c-0.033447266 1.7051086 -0.44580078 3.1873474 -1.2370605 4.446686c-0.78015137 1.2481995 -1.8556519 2.2177734 -3.2264404 2.908722c-1.3707886 0.6798401 -2.9421997 1.0197449 -4.7142334 1.0197449c-2.1397705 0 -3.878357 -0.43463135 -5.2156982 -1.3039246c-1.3374023 -0.8692627 -2.3850098 -2.0561829 -3.1428223 -3.5606995c-0.7467041 -1.5045166 -1.2537842 -3.2263489 -1.5213013 -5.165497c-0.26745605 -1.939148 -0.40118408 -3.9618835 -0.40118408 -6.068207l0 -1.4543762c0 -2.1063232 0.13928223 -4.11792 0.4179077 -6.03479c0.28979492 -1.928009 0.8024292 -3.6498413 1.5379639 -5.1655273c0.7355957 -1.5267944 1.7720337 -2.7304077 3.109436 -3.6108398c1.3373413 -0.8915405 3.059204 -1.3373413 5.1655884 -1.3373413c1.9725952 0 3.6331787 0.44580078 4.9816895 1.3373413c1.3596191 0.8804321 2.3961182 2.0561829 3.109375 3.5272827c0.72442627 1.4710693 1.1033325 3.109314 1.1367798 4.914734l13.591003 0c-0.033447266 -4.3129272 -1.0141602 -8.046356 -2.9421997 -11.200287c-1.9169312 -3.1650696 -4.5582275 -5.6001587 -7.92395 -7.3052673c-3.3545532 -1.7051086 -7.255188 -2.5576782 -11.701965 -2.5576782z" fill-rule="evenodd"/><path stroke="#8cabab" stroke-width="2.0" stroke-linejoin="round" stroke-linecap="butt" d="m817.9363 380.48682c2.0394897 0 3.7780762 0.43463135 5.2157593 1.3039246c1.4376221 0.8692627 2.5966797 2.0673218 3.4771118 3.5941162c0.89160156 1.5156555 1.5435791 3.2542114 1.9559326 5.2156677c0.4234619 1.9502869 0.6352539 4.0287476 0.6352539 6.235382l0 1.0531616c0 2.2734985 -0.21179199 4.3965454 -0.6352539 6.3691406c-0.41235352 1.9725647 -1.0531616 3.7055664 -1.9224854 5.198944c-0.8692627 1.4822083 -2.022766 2.6412659 -3.4604492 3.4771118c-1.4376831 0.8358154 -3.159546 1.2537537 -5.1655884 1.2537537c-2.072937 0 -3.828186 -0.41793823 -5.265869 -1.2537537c-1.4376831 -0.83584595 -2.602295 -1.9949036 -3.4938965 -3.4771118c-0.8804321 -1.4933777 -1.5212402 -3.2263794 -1.9224854 -5.198944c-0.40118408 -1.9725952 -0.60180664 -4.095642 -0.60180664 -6.3691406l0 -1.0531616c0 -2.2066345 0.20062256 -4.285095 0.60180664 -6.235382c0.40124512 -1.9614563 1.0420532 -3.7000122 1.9224854 -5.2156677c0.89160156 -1.5267944 2.045044 -2.7248535 3.4604492 -3.5941162c1.4265137 -0.8692932 3.159546 -1.3039246 5.1990356 -1.3039246zm0 -11.2838745c-4.1124268 0 -7.756775 0.6965332 -10.932983 2.0895996c-3.1762695 1.3819275 -5.851013 3.3099365 -8.024231 5.784027c-2.1732178 2.474121 -3.828247 5.393982 -4.964966 8.759644c-1.1367798 3.3545227 -1.7052002 7.0210876 -1.7052002 10.999695l0 1.0531616c0 3.9451904 0.5684204 7.6006165 1.7052002 10.966278c1.1367188 3.3544922 2.7973022 6.2799683 4.9816895 8.776337c2.1954956 2.4852295 4.886963 4.413269 8.074341 5.784027c3.1985474 1.3707886 6.854004 2.0561829 10.966431 2.0561829c4.1124268 0 7.756775 -0.6853943 10.932983 -2.0561829c3.1762695 -1.370758 5.8565674 -3.2987976 8.040955 -5.784027c2.1954956 -2.4963684 3.8616333 -5.4218445 4.998413 -8.776337c1.1367798 -3.3656616 1.7051392 -7.0210876 1.7051392 -10.966278l0 -1.0531616c0 -3.9786072 -0.5683594 -7.645172 -1.7051392 -10.999695c-1.1367798 -3.3656616 -2.8029175 -6.2855225 -4.998413 -8.759644c-2.1843872 -2.4740906 -4.8814087 -4.4020996 -8.091064 -5.784027c-3.2097168 -1.3930664 -6.8707275 -2.0895996 -10.983154 -2.0895996z" fill-rule="evenodd"/><path stroke="#8cabab" stroke-width="2.0" stroke-linejoin="round" stroke-linecap="butt" d="m882.28046 369.20294c-3.4771729 0 -6.536377 0.651947 -9.177673 1.9558716c-2.5527344 1.2601929 -4.7099 3.0148315 -6.4714966 5.2639465l0 0l-0.49957275 -6.216797l-13.591003 0l0 54.26291l14.493713 0l0 -38.500305l0 0c0.20263672 -0.37683105 0.41992188 -0.7385864 0.65197754 -1.0852051c0.90270996 -1.3596497 2.045044 -2.4239502 3.427002 -3.1929321c1.3931274 -0.76898193 3.0258179 -1.1534729 4.8981323 -1.1534729c1.7051392 0 3.1651 0.26748657 4.379883 0.8024292c1.2259521 0.5349426 2.1732178 1.4710693 2.841919 2.8084412c0.6687012 1.3373413 1.0030518 3.2430725 1.0030518 5.717163l0 34.60388l14.4435425 0l0 -36.20871c0 -0.5423279 -0.010314941 -1.0723267 -0.03100586 -1.5899353l0 0c0.3562622 -0.82180786 0.7845459 -1.57901 1.28479 -2.2716675c0.86932373 -1.2036133 1.9559326 -2.1453247 3.2598877 -2.8251343c1.303894 -0.690979 2.8251343 -1.0364685 4.5637207 -1.0364685c1.6717529 0 3.1149902 0.26190186 4.329773 0.78570557c1.2258911 0.5126648 2.1620483 1.4320679 2.8084717 2.7582703c0.65753174 1.3150635 0.9863281 3.2263794 0.9863281 5.7338867l0 34.654053l14.493713 0l0 -34.654053c0 -3.7780151 -0.41235352 -6.9709167 -1.2370605 -9.578766c-0.81359863 -2.6078186 -1.9837646 -4.7197266 -3.51062 -6.335663c-1.515686 -1.6271057 -3.3433838 -2.8140259 -5.4832153 -3.5606995c-2.1397705 -0.757843 -4.513611 -1.1367493 -7.12146 -1.1367493c-3.4102783 0 -6.4193726 0.6463928 -9.027283 1.939148c-2.6078491 1.2816467 -4.7922363 3.0758972 -6.5531006 5.382843c-0.25830078 0.34054565 -0.5072632 0.68911743 -0.7468262 1.0457153l0 0c-0.70526123 -1.5375061 -1.576355 -2.844513 -2.6132812 -3.9210205c-1.4488525 -1.5267944 -3.1762695 -2.6468506 -5.182312 -3.3601074c-2.0060425 -0.72439575 -4.2127075 -1.0865784 -6.619995 -1.0865784z" fill-rule="evenodd"/></g></svg>