<svg version="1.1" viewBox="0.0 0.0 228.18372703412072 216.4015748031496" fill="none" stroke="none" stroke-linecap="square" stroke-miterlimit="10" xmlns:xlink="http://www.w3.org/1999/xlink" xmlns="http://www.w3.org/2000/svg"><clipPath id="p.0"><path d="m0 0l228.18373 0l0 216.40158l-228.18373 0l0 -216.40158z" clip-rule="nonzero"/></clipPath><g clip-path="url(#p.0)"><path fill="#000000" fill-opacity="0.0" d="m0 0l228.18373 0l0 216.40158l-228.18373 0z" fill-rule="evenodd"/><path fill="#e06666" d="m89.07743 124.345146l5.952751 5.2913437l4.629921 5.9527435l2.8687668 6.94751l1.7637787 6.173233l0.22047424 6.393692l-0.44094086 5.6246796l-0.88188934 4.740158l-4.1916046 7.9370117l-6.2834625 8.821518l-4.9606323 4.2992096l-9.152229 3.086609l-5.5118103 1.6561737l-4.1916046 0.4409485l-2.3149567 -0.551178l-2.5354385 -0.330719l-2.2047195 -0.8845062l-1.1023636 -21.388458l10.475067 -37.81627l7.496063 -6.614174l4.4094467 -2.0971146l7.0577393 2.8687668z" fill-rule="evenodd"/><path fill="#e06666" d="m86.84729 123.583374l4.475151 2.2475433l2.6826859 2.6565857l4.427902 4.839096l1.8467407 3.4280548l2.3763428 5.344467l0.44229126 2.6479034l0.4664383 3.5153046l-1.9508896 12.637238l-0.3495407 6.2676086l-2.7497559 5.492798l-2.204628 5.0663147l-3.3707123 3.3197327l-4.7725754 4.644516l-3.0378647 1.5057068l-3.089981 0.8812103l-4.652008 1.4429474l-4.652008 1.4429474l-4.057007 -0.46705627l13.827576 -69.268196z" fill-rule="evenodd"/><path fill="#c1a279" d="m110.20713 139.99084l2.4289246 1.6285706l26.519264 -6.131241l15.271133 -11.826187l26.76094 -14.169716l13.414795 -9.380714l13.604202 -9.852364l-2.351181 -19.73645l-0.7635956 -25.37022l-5.249115 -16.054707l-11.303055 -3.6278553l-31.32483 -1.9427567l-25.161835 0.5168705l-21.13749 2.0109482l-24.929047 5.9971848l-26.001598 12.272392l-21.84819 15.359745l-11.967535 15.675304l-7.7134132 25.39466l-0.57121086 14.941185l2.297289 5.535454l12.800188 -0.39150238l12.617065 -10.688454l8.4011 -17.205353l21.88655 -14.904648l19.86547 -6.257843l23.94477 -1.3309326l12.481995 6.7394104l1.7704926 7.4105377l-2.7776184 7.7965546l-16.844772 12.188011l-11.819328 14.746162l-2.5886536 7.319664l1.2798843 9.74617z" fill-rule="evenodd"/><path fill="#d2bc9f" d="m40.227055 117.303604l-2.1477242 2.5677948l-4.6477966 1.0214005l-9.377403 1.0417175l-4.818989 -2.4814224l-1.0961819 -8.574013l2.5085201 -16.035286l6.74144 -17.52301l5.571419 -9.25914l8.100143 -7.341839l12.125877 -9.812061l13.33115 -8.785763l13.533684 -6.4162292l16.183495 -6.010441l18.329048 -4.1834755l19.881271 -0.5491657l12.738647 -1.074604l7.6601562 0.73511124l15.1627655 1.1075191l15.175888 1.2317429l11.565018 -0.22094917l4.859192 8.88323l0.809906 9.600811l-1.1769867 17.0536l-6.694504 15.132427l-10.402847 11.050682l-14.17395 10.614159l-14.405197 9.377686l-15.991318 9.762154l-15.4077835 12.227531l-10.482338 7.161484l-7.7358093 2.7885284l-3.687355 -3.8328552l-1.0904007 -5.558563l1.7162628 -9.1872635l6.7266083 -8.857941l14.438866 -13.399109l9.274361 -6.6835785l4.030243 -5.3638763l0.32234192 -5.0510864l-2.676361 -3.6674805l-4.2048187 -5.546501l-4.897789 -1.9734497l-8.826286 -1.2660599l-18.510513 0.5588608l-12.712097 4.336296l-15.897217 4.98365l-9.897026 3.7228317l-7.7140465 10.445198l-4.5812035 9.178276l-2.0423698 5.321518l-3.2085 4.790573z" fill-rule="evenodd"/><path fill="#f4cccc" d="m32.368866 153.56047l0 0c0 -19.151657 15.081306 -34.677162 33.685043 -34.677162l0 0c8.933823 0 17.501747 3.6534805 23.818916 10.156715c6.317169 6.5032196 9.866119 15.323502 9.866119 24.520447l0 0c0 19.151672 -15.081306 34.67717 -33.685036 34.67717l0 0c-18.603737 0 -33.685043 -15.525497 -33.685043 -34.67717z" fill-rule="evenodd"/><path stroke="#ea9999" stroke-width="4.0" stroke-linejoin="round" stroke-linecap="butt" d="m32.368866 153.56047l0 0c0 -19.151657 15.081306 -34.677162 33.685043 -34.677162l0 0c8.933823 0 17.501747 3.6534805 23.818916 10.156715c6.317169 6.5032196 9.866119 15.323502 9.866119 24.520447l0 0c0 19.151672 -15.081306 34.67717 -33.685036 34.67717l0 0c-18.603737 0 -33.685043 -15.525497 -33.685043 -34.67717z" fill-rule="evenodd"/><path fill="#c1a279" d="m41.21301 119.33051l5.771202 -9.044289l1.2112579 -6.7861176l2.4665947 -5.9605255l3.5232162 -4.7093124l4.31089 -6.646866l4.7867393 -2.4107437l4.7588997 -1.3350754l3.3378906 -2.6890411l5.949684 -1.304779l6.387329 -1.7391663l2.320488 -2.069519l6.8605347 -1.7818756l8.32946 -1.2354965l8.023476 -0.67591095l4.5904846 -0.5201645l2.6624603 0.57927704l4.3408127 2.1727982l4.5454865 1.7580261l3.7945786 2.7554703l2.972931 2.8246841l2.2394562 -0.18865204l1.0119781 -2.0899048l0.45137024 -3.1131516l-1.8352356 -6.2654114l-4.7160187 -8.027374l-3.2587967 -4.808098l-4.949135 -0.92046356l-11.069923 -0.26854324l-10.304939 1.8022842l-12.263977 2.503971l-9.32135 3.593464l-7.1633453 3.8148766l-7.118885 4.342102l-6.448704 2.4172897l-6.623089 4.567253l-1.5530434 6.951195l-2.676773 7.7159805l-2.4335938 9.16349l-2.682457 6.242775l-2.438797 7.6959305l0.15964508 3.3285904l0.3723259 1.5729294z" fill-rule="evenodd"/></g></svg>