<svg version="1.1" viewBox="0.0 0.0 960.6850393700787 224.81627296587928" fill="none" stroke="none" stroke-linecap="square" stroke-miterlimit="10" xmlns:xlink="http://www.w3.org/1999/xlink" xmlns="http://www.w3.org/2000/svg"><clipPath id="p.0"><path d="m0 0l960.68506 0l0 224.81627l-960.68506 0l0 -224.81627z" clip-rule="nonzero"/></clipPath><g clip-path="url(#p.0)"><path fill="#000000" fill-opacity="0.0" d="m0 0l960.68506 0l0 224.81627l-960.68506 0z" fill-rule="evenodd"/><path fill="#76adad" d="m659.0509 31.862204l-41.224243 95.83789l0 17.326454l56.939087 0l0 28.360825l23.091797 0l0 -28.360825l15.8078 0l0 -21.57283l-15.8078 0l0 -37.907417l-23.091797 0l0 37.907417l-30.809753 0l35.4281 -82.974785l-20.33319 -8.616732z" fill-rule="evenodd"/><path stroke="#759393" stroke-width="2.0" stroke-linejoin="round" stroke-linecap="butt" d="m659.0509 31.862204l-41.224243 95.83789l0 17.326454l56.939087 0l0 28.360825l23.091797 0l0 -28.360825l15.8078 0l0 -21.57283l-15.8078 0l0 -37.907417l-23.091797 0l0 37.907417l-30.809753 0l35.4281 -82.974785l-20.33319 -8.616732z" fill-rule="evenodd"/><path fill="#80d0ec" d="m522.27484 79.63461c-9.043823 0 -16.941406 2.1661224 -23.692688 6.498352c-6.733246 4.3141785 -11.896027 10.108543 -15.488281 17.383087c-3.5742188 7.274544 -5.361328 15.271118 -5.361328 23.989738c0 9.260155 1.7600403 17.509438 5.2800903 24.747887c3.5381165 7.2203827 8.59256 12.879364 15.163361 16.976929c6.588806 4.0795135 14.233673 6.119278 22.93454 6.119278c5.6501465 0 10.713623 -0.5866394 15.19043 -1.759964c4.494812 -1.1552582 9.206299 -3.0957336 14.134399 -5.8214417l-6.4714966 -17.518463c-5.036377 2.6354523 -8.953613 4.3954163 -11.751587 5.279907c-2.7980347 0.8664551 -6.164612 1.2996674 -10.0998535 1.2996674c-4.765625 0 -8.9175415 -1.2906342 -12.455627 -3.871933c-3.52005 -2.5812836 -6.3000183 -6.119278 -8.339844 -10.613968c-2.0398254 -4.512741 -3.0597534 -9.576035 -3.0597534 -15.189888c0 -9.1879425 2.3828125 -16.318077 7.1484375 -21.390404c4.7836914 -5.072319 10.677551 -7.6084824 17.681519 -7.6084824c3.2312622 0 6.1556396 0.3339386 8.773132 1.0018234c2.635498 0.66789246 6.299988 2.175148 10.993408 4.5217743l6.254883 -17.5997c-4.982239 -2.4188232 -9.431946 -4.0975647 -13.349182 -5.0362167c-3.9171753 -0.93865204 -8.412048 -1.4079819 -13.484558 -1.4079819z" fill-rule="evenodd"/><path stroke="#759393" stroke-width="2.0" stroke-linejoin="round" stroke-linecap="butt" d="m522.27484 79.63461c-9.043823 0 -16.941406 2.1661224 -23.692688 6.498352c-6.733246 4.3141785 -11.896027 10.108543 -15.488281 17.383087c-3.5742188 7.274544 -5.361328 15.271118 -5.361328 23.989738c0 9.260155 1.7600403 17.509438 5.2800903 24.747887c3.5381165 7.2203827 8.59256 12.879364 15.163361 16.976929c6.588806 4.0795135 14.233673 6.119278 22.93454 6.119278c5.6501465 0 10.713623 -0.5866394 15.19043 -1.759964c4.494812 -1.1552582 9.206299 -3.0957336 14.134399 -5.8214417l-6.4714966 -17.518463c-5.036377 2.6354523 -8.953613 4.3954163 -11.751587 5.279907c-2.7980347 0.8664551 -6.164612 1.2996674 -10.0998535 1.2996674c-4.765625 0 -8.9175415 -1.2906342 -12.455627 -3.871933c-3.52005 -2.5812836 -6.3000183 -6.119278 -8.339844 -10.613968c-2.0398254 -4.512741 -3.0597534 -9.576035 -3.0597534 -15.189888c0 -9.1879425 2.3828125 -16.318077 7.1484375 -21.390404c4.7836914 -5.072319 10.677551 -7.6084824 17.681519 -7.6084824c3.2312622 0 6.1556396 0.3339386 8.773132 1.0018234c2.635498 0.66789246 6.299988 2.175148 10.993408 4.5217743l6.254883 -17.5997c-4.982239 -2.4188232 -9.431946 -4.0975647 -13.349182 -5.0362167c-3.9171753 -0.93865204 -8.412048 -1.4079819 -13.484558 -1.4079819z" fill-rule="evenodd"/><path fill="#80d0ec" d="m169.43666 98.153984c4.7656097 0 9.025757 1.3357697 12.780472 4.0073166c3.772766 2.6534958 6.778351 6.200508 9.016739 10.641045c2.2564392 4.440544 3.3846588 9.341377 3.3846588 14.702515c0 8.808876 -2.211319 15.902916 -6.6339417 21.282097c-4.4226227 5.361145 -10.605255 8.041702 -18.547928 8.041702c-4.7836456 0 -9.052826 -1.3177032 -12.807541 -3.9531555c-3.754715 -2.6534882 -6.7602997 -6.254669 -9.016739 -10.803513c-2.238388 -4.5668793 -3.3575745 -9.539917 -3.3575745 -14.919121c0 -8.899132 2.2113037 -15.957062 6.6339264 -21.17379c4.4226227 -5.216736 10.60527 -7.825096 18.547928 -7.825096zm0 -18.520294c-8.538361 0 -16.291489 1.949501 -23.259369 5.8485107c-6.949829 3.8990097 -12.428467 9.431633 -16.435898 16.59787c-3.9893875 7.166237 -5.9840775 15.641167 -5.9840775 25.42479c0 9.296257 1.9585876 17.563606 5.8757706 24.80204c3.9352264 7.2203827 9.377762 12.870331 16.32759 16.94986c6.9678802 4.0614624 14.793213 6.092209 23.475983 6.092209c8.682785 0 16.472 -2.003662 23.367691 -6.0109863c6.8956757 -4.007309 12.338196 -9.62117 16.32759 -16.841553c3.98938 -7.238434 5.98407 -15.686295 5.98407 -25.34356c0 -9.657272 -2.0307922 -18.041954 -6.0923767 -25.15403c-4.0615997 -7.130127 -9.540237 -12.6356735 -16.435913 -16.51664c-6.8776245 -3.8990097 -14.594635 -5.8485107 -23.151062 -5.8485107z" fill-rule="evenodd"/><path stroke="#759393" stroke-width="2.0" stroke-linejoin="round" stroke-linecap="butt" d="m169.43666 98.153984c4.7656097 0 9.025757 1.3357697 12.780472 4.0073166c3.772766 2.6534958 6.778351 6.200508 9.016739 10.641045c2.2564392 4.440544 3.3846588 9.341377 3.3846588 14.702515c0 8.808876 -2.211319 15.902916 -6.6339417 21.282097c-4.4226227 5.361145 -10.605255 8.041702 -18.547928 8.041702c-4.7836456 0 -9.052826 -1.3177032 -12.807541 -3.9531555c-3.754715 -2.6534882 -6.7602997 -6.254669 -9.016739 -10.803513c-2.238388 -4.5668793 -3.3575745 -9.539917 -3.3575745 -14.919121c0 -8.899132 2.2113037 -15.957062 6.6339264 -21.17379c4.4226227 -5.216736 10.60527 -7.825096 18.547928 -7.825096zm0 -18.520294c-8.538361 0 -16.291489 1.949501 -23.259369 5.8485107c-6.949829 3.8990097 -12.428467 9.431633 -16.435898 16.59787c-3.9893875 7.166237 -5.9840775 15.641167 -5.9840775 25.42479c0 9.296257 1.9585876 17.563606 5.8757706 24.80204c3.9352264 7.2203827 9.377762 12.870331 16.32759 16.94986c6.9678802 4.0614624 14.793213 6.092209 23.475983 6.092209c8.682785 0 16.472 -2.003662 23.367691 -6.0109863c6.8956757 -4.007309 12.338196 -9.62117 16.32759 -16.841553c3.98938 -7.238434 5.98407 -15.686295 5.98407 -25.34356c0 -9.657272 -2.0307922 -18.041954 -6.0923767 -25.15403c-4.0615997 -7.130127 -9.540237 -12.6356735 -16.435913 -16.51664c-6.8776245 -3.8990097 -14.594635 -5.8485107 -23.151062 -5.8485107z" fill-rule="evenodd"/><path fill="#80d0ec" d="m354.48212 77.84052c-7.3286133 0 -13.651154 1.7444458 -18.967651 5.23333c-5.298004 3.4704208 -8.03009 5.371773 -8.196228 5.704048l0.055389404 -8.888351l-20.102936 0l0 93.78455l20.601349 0l0 -60.390938c2.8612976 -4.3011093 6.433319 -8.149956 10.716034 -11.546547c4.282715 -3.4150467 8.731567 -5.122566 13.346558 -5.122566c4.4673157 0 7.9747314 1.6429062 10.522217 4.9287415c2.5474548 3.2673645 3.8211975 7.771538 3.8211975 13.512505l0 58.618805l20.629059 0l0 -60.335556c0 -10.485115 -2.7044067 -19.022736 -8.113159 -25.612846c-5.39032 -6.5901184 -13.494263 -9.885178 -24.311829 -9.885178z" fill-rule="evenodd"/><path stroke="#759393" stroke-width="2.0" stroke-linejoin="round" stroke-linecap="butt" d="m354.48212 77.84052c-7.3286133 0 -13.651154 1.7444458 -18.967651 5.23333c-5.298004 3.4704208 -8.03009 5.371773 -8.196228 5.704048l0.055389404 -8.888351l-20.102936 0l0 93.78455l20.601349 0l0 -60.390938c2.8612976 -4.3011093 6.433319 -8.149956 10.716034 -11.546547c4.282715 -3.4150467 8.731567 -5.122566 13.346558 -5.122566c4.4673157 0 7.9747314 1.6429062 10.522217 4.9287415c2.5474548 3.2673645 3.8211975 7.771538 3.8211975 13.512505l0 58.618805l20.629059 0l0 -60.335556c0 -10.485115 -2.7044067 -19.022736 -8.113159 -25.612846c-5.39032 -6.5901184 -13.494263 -9.885178 -24.311829 -9.885178z" fill-rule="evenodd"/><path fill="#80d0ec" d="m264.58173 78.70559c-7.3286133 0 -13.651169 1.7444458 -18.967651 5.23333c-5.2980194 3.4704208 -8.03009 5.371773 -8.196228 5.704048l0.055374146 -8.888344l-20.102936 0l0 93.784546l20.601349 0l0 -60.390938c2.8612976 -4.3011093 6.433319 -8.149956 10.716034 -11.546547c4.282715 -3.4150467 8.731583 -5.122566 13.346573 -5.122566c4.4673157 0 7.9747314 1.6429062 10.522186 4.9287415c2.5474854 3.2673645 3.821228 7.771538 3.821228 13.512505l0 58.618805l20.629059 0l0 -60.335556c0 -10.485115 -2.7044067 -19.022728 -8.11319 -25.612846c-5.39032 -6.5901184 -13.494263 -9.885178 -24.311798 -9.885178z" fill-rule="evenodd"/><path stroke="#759393" stroke-width="2.0" stroke-linejoin="round" stroke-linecap="butt" d="m264.58173 78.70559c-7.3286133 0 -13.651169 1.7444458 -18.967651 5.23333c-5.2980194 3.4704208 -8.03009 5.371773 -8.196228 5.704048l0.055374146 -8.888344l-20.102936 0l0 93.784546l20.601349 0l0 -60.390938c2.8612976 -4.3011093 6.433319 -8.149956 10.716034 -11.546547c4.282715 -3.4150467 8.731583 -5.122566 13.346573 -5.122566c4.4673157 0 7.9747314 1.6429062 10.522186 4.9287415c2.5474854 3.2673645 3.821228 7.771538 3.821228 13.512505l0 58.618805l20.629059 0l0 -60.335556c0 -10.485115 -2.7044067 -19.022728 -8.11319 -25.612846c-5.39032 -6.5901184 -13.494263 -9.885178 -24.311798 -9.885178z" fill-rule="evenodd"/><path fill="#80d0ec" d="m433.15784 97.37947c6.790802 0 12.076599 2.0464096 15.857422 6.139229c3.7991638 4.0744705 5.698761 9.167549 5.698761 15.279251l-42.64438 0c0.6423645 -6.1483994 2.8723145 -11.250664 6.68985 -15.306778c3.8358765 -4.074463 8.635345 -6.111702 14.398346 -6.111702zm0.33035278 -18.500275c-8.424255 0 -15.839081 2.1473541 -22.244446 6.4420624c-6.387024 4.2947083 -11.342468 10.103569 -14.866364 17.426598c-3.5238647 7.3230286 -5.285797 15.591255 -5.285797 24.804695c0 15.215012 3.9368286 27.126389 11.810486 35.73416c7.8919983 8.607773 18.537048 12.911667 31.93509 12.911667c6.5338745 0 12.425354 -0.6148529 17.674438 -1.8445282c5.249115 -1.2296753 10.672577 -3.0925446 16.270386 -5.588623l-4.9554443 -18.197449c-5.46933 2.477707 -10.14032 4.2304688 -14.012909 5.258255c-3.872589 1.0278015 -8.240723 1.5417023 -13.104401 1.5417023c-7.066101 0 -12.728149 -2.073944 -16.986176 -6.2218323c-4.2579956 -4.1662292 -6.7265625 -9.066605 -7.4056396 -14.701111l60.951996 0c0.513916 -5.414261 0.7708435 -10.1311035 0.7708435 -14.150513c0 -7.8185654 -1.5049744 -15.031471 -4.5149536 -21.638718c-3.0099792 -6.607239 -7.524933 -11.883858 -13.544891 -15.829849c-6.001587 -3.9643478 -13.498993 -5.946518 -22.492218 -5.946518z" fill-rule="evenodd"/><path stroke="#759393" stroke-width="2.0" stroke-linejoin="round" stroke-linecap="butt" d="m433.15784 97.37947c6.790802 0 12.076599 2.0464096 15.857422 6.139229c3.7991638 4.0744705 5.698761 9.167549 5.698761 15.279251l-42.64438 0c0.6423645 -6.1483994 2.8723145 -11.250664 6.68985 -15.306778c3.8358765 -4.074463 8.635345 -6.111702 14.398346 -6.111702zm0.33035278 -18.500275c-8.424255 0 -15.839081 2.1473541 -22.244446 6.4420624c-6.387024 4.2947083 -11.342468 10.103569 -14.866364 17.426598c-3.5238647 7.3230286 -5.285797 15.591255 -5.285797 24.804695c0 15.215012 3.9368286 27.126389 11.810486 35.73416c7.8919983 8.607773 18.537048 12.911667 31.93509 12.911667c6.5338745 0 12.425354 -0.6148529 17.674438 -1.8445282c5.249115 -1.2296753 10.672577 -3.0925446 16.270386 -5.588623l-4.9554443 -18.197449c-5.46933 2.477707 -10.14032 4.2304688 -14.012909 5.258255c-3.872589 1.0278015 -8.240723 1.5417023 -13.104401 1.5417023c-7.066101 0 -12.728149 -2.073944 -16.986176 -6.2218323c-4.2579956 -4.1662292 -6.7265625 -9.066605 -7.4056396 -14.701111l60.951996 0c0.513916 -5.414261 0.7708435 -10.1311035 0.7708435 -14.150513c0 -7.8185654 -1.5049744 -15.031471 -4.5149536 -21.638718c-3.0099792 -6.607239 -7.524933 -11.883858 -13.544891 -15.829849c-6.001587 -3.9643478 -13.498993 -5.946518 -22.492218 -5.946518z" fill-rule="evenodd"/><path fill="#80d0ec" d="m570.1032 56.582443l-3.1464844 27.34134l-15.623657 0l0 18.200432l14.999817 0l0 38.055458c0 10.867813 2.6582031 19.330612 7.9746094 25.388382c5.3164062 6.039688 12.531494 9.05954 21.645325 9.05954c4.394165 0 8.5894165 -0.67811584 12.585754 -2.0343323c3.996338 -1.3562164 7.793762 -3.1012268 11.392273 -5.2350006l-5.913147 -17.034088c-3.7974243 2.2241974 -6.835388 3.743164 -9.113831 4.5569c-2.2784424 0.79563904 -4.656372 1.1934662 -7.133728 1.1934662c-3.092163 0 -5.741333 -1.0307312 -7.9474487 -3.0921783c-2.1880493 -2.0614471 -3.2821045 -5.9402313 -3.2821045 -11.636337l0 -39.22181l24.005188 0l0 -18.200432l-24.005188 0l0 -27.34134z" fill-rule="evenodd"/><path stroke="#759393" stroke-width="2.0" stroke-linejoin="round" stroke-linecap="butt" d="m570.1032 56.582443l-3.1464844 27.34134l-15.623657 0l0 18.200432l14.999817 0l0 38.055458c0 10.867813 2.6582031 19.330612 7.9746094 25.388382c5.3164062 6.039688 12.531494 9.05954 21.645325 9.05954c4.394165 0 8.5894165 -0.67811584 12.585754 -2.0343323c3.996338 -1.3562164 7.793762 -3.1012268 11.392273 -5.2350006l-5.913147 -17.034088c-3.7974243 2.2241974 -6.835388 3.743164 -9.113831 4.5569c-2.2784424 0.79563904 -4.656372 1.1934662 -7.133728 1.1934662c-3.092163 0 -5.741333 -1.0307312 -7.9474487 -3.0921783c-2.1880493 -2.0614471 -3.2821045 -5.9402313 -3.2821045 -11.636337l0 -39.22181l24.005188 0l0 -18.200432l-24.005188 0l0 -27.34134z" fill-rule="evenodd"/><path fill="#80d0ec" d="m88.54029 48.711414c-11.962723 0 -22.409203 2.8652802 -31.339458 8.59584c-8.906376 5.7066803 -15.735394 13.371311 -20.48705 22.993877c-4.7277794 9.622574 -7.091671 20.200226 -7.091671 31.732986c0 12.249069 2.3280735 23.16101 6.9842224 32.735825c4.680027 9.550934 11.365776 17.036484 20.057251 22.456635c8.715351 5.3962708 18.827549 8.094421 30.33659 8.094421c7.4737167 0 14.17141 -0.776001 20.093071 -2.3280334c5.9455414 -1.5281525 12.177612 -4.0949554 18.69622 -7.7004547l-8.5601425 -23.172943c-6.661873 3.486084 -11.84333 5.8141327 -15.544373 6.9841156c-3.7010422 1.1461182 -8.154228 1.719162 -13.359566 1.719162c-6.3037033 0 -11.79557 -1.7072144 -16.475594 -5.121689c-4.656151 -3.4144592 -8.333313 -8.094406 -11.03149 -14.039871c-2.6981773 -5.96933 -4.047268 -12.6669235 -4.047268 -20.092781c0 -12.153557 3.1518555 -21.585106 9.455559 -28.29464c6.327591 -6.7095337 14.12365 -10.064301 23.388191 -10.064301c4.2741013 0 8.142288 0.44172668 11.604553 1.3251877c3.4861374 0.8834686 8.333305 2.8772278 14.541504 5.9812775l8.273621 -23.280407c-6.5902405 -3.1995583 -12.4760895 -5.4201508 -17.657547 -6.6617775c-5.1814575 -1.2416229 -11.126999 -1.8624306 -17.836624 -1.8624306z" fill-rule="evenodd"/><path stroke="#759393" stroke-width="2.0" stroke-linejoin="round" stroke-linecap="butt" d="m88.54029 48.711414c-11.962723 0 -22.409203 2.8652802 -31.339458 8.59584c-8.906376 5.7066803 -15.735394 13.371311 -20.48705 22.993877c-4.7277794 9.622574 -7.091671 20.200226 -7.091671 31.732986c0 12.249069 2.3280735 23.16101 6.9842224 32.735825c4.680027 9.550934 11.365776 17.036484 20.057251 22.456635c8.715351 5.3962708 18.827549 8.094421 30.33659 8.094421c7.4737167 0 14.17141 -0.776001 20.093071 -2.3280334c5.9455414 -1.5281525 12.177612 -4.0949554 18.69622 -7.7004547l-8.5601425 -23.172943c-6.661873 3.486084 -11.84333 5.8141327 -15.544373 6.9841156c-3.7010422 1.1461182 -8.154228 1.719162 -13.359566 1.719162c-6.3037033 0 -11.79557 -1.7072144 -16.475594 -5.121689c-4.656151 -3.4144592 -8.333313 -8.094406 -11.03149 -14.039871c-2.6981773 -5.96933 -4.047268 -12.6669235 -4.047268 -20.092781c0 -12.153557 3.1518555 -21.585106 9.455559 -28.29464c6.327591 -6.7095337 14.12365 -10.064301 23.388191 -10.064301c4.2741013 0 8.142288 0.44172668 11.604553 1.3251877c3.4861374 0.8834686 8.333305 2.8772278 14.541504 5.9812775l8.273621 -23.280407c-6.5902405 -3.1995583 -12.4760895 -5.4201508 -17.657547 -6.6617775c-5.1814575 -1.2416229 -11.126999 -1.8624306 -17.836624 -1.8624306z" fill-rule="evenodd"/><path fill="#bbe7e7" d="m720.1913 153.97537c-2.474121 0 -4.4578857 0.71881104 -5.951294 2.1564636c-1.4822388 1.4376526 -2.2233887 3.2263641 -2.2233887 5.3661194c0 2.1397552 0.7411499 3.9284668 2.2233887 5.366104c1.4934082 1.4376526 3.4771729 2.156479 5.951294 2.156479c2.474121 0 4.4523315 -0.7188263 5.9345703 -2.156479c1.4934082 -1.4376373 2.2401123 -3.2263489 2.2401123 -5.366104c0 -2.1397552 -0.7467041 -3.9284668 -2.2401123 -5.3661194c-1.4822388 -1.4376526 -3.4604492 -2.1564636 -5.9345703 -2.1564636z" fill-rule="evenodd"/><path fill="#bbe7e7" d="m763.72266 113.20294c-4.1792603 0 -7.8236084 0.70210266 -10.932983 2.1063232c-3.109375 1.404213 -5.7005615 3.354515 -7.7734985 5.8508987c-2.072876 2.4852448 -3.6275635 5.3939743 -4.6640625 8.726204c-1.036438 3.3210907 -1.5546875 6.904068 -1.5546875 10.748947l0 1.454361c0 3.8114471 0.5182495 7.3832855 1.5546875 10.715515c1.036499 3.3210754 2.5911865 6.2298126 4.6640625 8.726196c2.072937 2.4852448 4.6696777 4.429962 7.790222 5.8341827c3.1316528 1.4042206 6.803833 2.1063232 11.016541 2.1063232c4.1793213 0 7.9573975 -0.8414154 11.3342285 -2.5242462c3.376831 -1.6939697 6.0682983 -4.017624 8.074341 -6.970932c2.0061035 -2.9644623 3.0258179 -6.3524017 3.0592651 -10.163849l-13.591003 0c-0.033447266 1.7051239 -0.44580078 3.1873474 -1.2370605 4.446686c-0.78015137 1.2481842 -1.8556519 2.2177734 -3.2264404 2.9087372c-1.3707886 0.6798096 -2.9421997 1.0197296 -4.7142334 1.0197296c-2.1397705 0 -3.878357 -0.4346466 -5.2156982 -1.3039246c-1.3374023 -0.86927795 -2.3850098 -2.0561676 -3.1428223 -3.5606842c-0.7467041 -1.5045166 -1.2537842 -3.2263641 -1.5213013 -5.165512c-0.26745605 -1.9391632 -0.40118408 -3.9618988 -0.40118408 -6.068222l0 -1.454361c0 -2.1063232 0.13928223 -4.11792 0.4179077 -6.03479c0.28979492 -1.928009 0.8024292 -3.6498566 1.5379639 -5.165512c0.7355957 -1.5268097 1.7720337 -2.730423 3.109436 -3.6108398c1.3373413 -0.89157104 3.059204 -1.3373489 5.1655884 -1.3373489c1.9725952 0 3.6331787 0.4457779 4.9816895 1.3373489c1.3596191 0.88041687 2.3961182 2.0561676 3.109375 3.5272522c0.72442627 1.4710846 1.1033325 3.1093445 1.1367798 4.9147644l13.591003 0c-0.033447266 -4.312958 -1.0141602 -8.046387 -2.9421997 -11.200302c-1.9169312 -3.165062 -4.5582275 -5.600151 -7.92395 -7.3052673c-3.3545532 -1.7051239 -7.255188 -2.5576782 -11.701965 -2.5576782z" fill-rule="evenodd"/><path fill="#bbe7e7" d="m817.9363 124.486824c2.0394897 0 3.7780762 0.43463135 5.2157593 1.3039093c1.4376221 0.86927795 2.5966797 2.0673218 3.4771118 3.5941238c0.89160156 1.5156708 1.5435791 3.2542267 1.9559326 5.2156677c0.4234619 1.9503021 0.6352539 4.028763 0.6352539 6.235382l0 1.0531616c0 2.2734985 -0.21179199 4.3965454 -0.6352539 6.3691254c-0.41235352 1.9725952 -1.0531616 3.7055664 -1.9224854 5.198944c-0.8692627 1.4822235 -2.022766 2.6412659 -3.4604492 3.4771118c-1.4376831 0.83584595 -3.159546 1.2537689 -5.1655884 1.2537689c-2.072937 0 -3.828186 -0.41792297 -5.265869 -1.2537689c-1.4376831 -0.83584595 -2.602295 -1.9948883 -3.4938965 -3.4771118c-0.8804321 -1.4933777 -1.5212402 -3.2263489 -1.9224854 -5.198944c-0.40118408 -1.97258 -0.60180664 -4.095627 -0.60180664 -6.3691254l0 -1.0531616c0 -2.2066193 0.20062256 -4.28508 0.60180664 -6.235382c0.40124512 -1.961441 1.0420532 -3.699997 1.9224854 -5.2156677c0.89160156 -1.5268021 2.045044 -2.724846 3.4604492 -3.5941238c1.4265137 -0.86927795 3.159546 -1.3039093 5.1990356 -1.3039093zm0 -11.283882c-4.1124268 0 -7.756775 0.6965332 -10.932983 2.0896072c-3.1762695 1.3819275 -5.851013 3.3099365 -8.024231 5.7840347c-2.1732178 2.4740906 -3.828247 5.3939743 -4.964966 8.759628c-1.1367798 3.3545227 -1.7052002 7.0210876 -1.7052002 10.999695l0 1.0531616c0 3.9451904 0.5684204 7.600601 1.7052002 10.966263c1.1367188 3.3545227 2.7973022 6.2799683 4.9816895 8.776352c2.1954956 2.4852448 4.886963 4.413254 8.074341 5.7840424c3.1985474 1.3707733 6.854004 2.0561676 10.966431 2.0561676c4.1124268 0 7.756775 -0.6853943 10.932983 -2.0561676c3.1762695 -1.3707886 5.8565674 -3.2987976 8.040955 -5.7840424c2.1954956 -2.4963837 3.8616333 -5.421829 4.998413 -8.776352c1.1367798 -3.3656616 1.7051392 -7.0210724 1.7051392 -10.966263l0 -1.0531616c0 -3.9786072 -0.5683594 -7.645172 -1.7051392 -10.999695c-1.1367798 -3.365654 -2.8029175 -6.2855377 -4.998413 -8.759628c-2.1843872 -2.4740982 -4.8814087 -4.4021072 -8.091064 -5.7840347c-3.2097168 -1.393074 -6.8707275 -2.0896072 -10.983154 -2.0896072z" fill-rule="evenodd"/><path fill="#bbe7e7" d="m882.28046 113.20294c-3.4771729 0 -6.536377 0.65195465 -9.177673 1.9558716c-2.5527344 1.2601852 -4.7099 3.0148315 -6.4714966 5.263939l0 0l-0.49957275 -6.2168045l-13.591003 0l0 54.26294l14.493713 0l0 -38.50032l0 0c0.20263672 -0.3768463 0.41992188 -0.73857117 0.65197754 -1.0852051c0.90270996 -1.359642 2.045044 -2.4239502 3.427002 -3.1929245c1.3931274 -0.76898193 3.0258179 -1.1534653 4.8981323 -1.1534653c1.7051392 0 3.1651 0.2674713 4.379883 0.8024063c1.2259521 0.5349426 2.1732178 1.4710846 2.841919 2.8084335c0.6687012 1.3373566 1.0030518 3.2430725 1.0030518 5.717163l0 34.603912l14.4435425 0l0 -36.208725c0 -0.54234314 -0.010314941 -1.0723114 -0.03100586 -1.58992l0 0c0.3562622 -0.82180786 0.7845459 -1.5790405 1.28479 -2.2716827c0.86932373 -1.2036057 1.9559326 -2.1453247 3.2598877 -2.825142c1.303894 -0.69096375 2.8251343 -1.0364456 4.5637207 -1.0364456c1.6717529 0 3.1149902 0.26189423 4.329773 0.7856903c1.2258911 0.51264954 2.1620483 1.4320831 2.8084717 2.7582855c0.65753174 1.3150635 0.9863281 3.2263489 0.9863281 5.7338867l0 34.654053l14.493713 0l0 -34.654053c0 -3.7780151 -0.41235352 -6.9709396 -1.2370605 -9.578766c-0.81359863 -2.6078339 -1.9837646 -4.7197266 -3.51062 -6.3356934c-1.515686 -1.6271057 -3.3433838 -2.814003 -5.4832153 -3.5606918c-2.1397705 -0.75782776 -4.513611 -1.1367416 -7.12146 -1.1367416c-3.4102783 0 -6.4193726 0.6463852 -9.027283 1.9391556c-2.6078491 1.2816238 -4.7922363 3.0758972 -6.5531006 5.3828278c-0.25830078 0.3405609 -0.5072632 0.6891403 -0.7468262 1.0457306l0 0c-0.70526123 -1.5375137 -1.576355 -2.8445282 -2.6132812 -3.9210358c-1.4488525 -1.5268021 -3.1762695 -2.6468353 -5.182312 -3.3600845c-2.0060425 -0.72439575 -4.2127075 -1.0865936 -6.619995 -1.0865936z" fill-rule="evenodd"/><path stroke="#759393" stroke-width="2.0" stroke-linejoin="round" stroke-linecap="butt" d="m720.1913 153.97537c-2.474121 0 -4.4578857 0.71881104 -5.951294 2.1564636c-1.4822388 1.4376526 -2.2233887 3.2263641 -2.2233887 5.3661194c0 2.1397552 0.7411499 3.9284668 2.2233887 5.366104c1.4934082 1.4376526 3.4771729 2.156479 5.951294 2.156479c2.474121 0 4.4523315 -0.7188263 5.9345703 -2.156479c1.4934082 -1.4376373 2.2401123 -3.2263489 2.2401123 -5.366104c0 -2.1397552 -0.7467041 -3.9284668 -2.2401123 -5.3661194c-1.4822388 -1.4376526 -3.4604492 -2.1564636 -5.9345703 -2.1564636z" fill-rule="evenodd"/><path stroke="#759393" stroke-width="2.0" stroke-linejoin="round" stroke-linecap="butt" d="m763.72266 113.20294c-4.1792603 0 -7.8236084 0.70210266 -10.932983 2.1063232c-3.109375 1.404213 -5.7005615 3.354515 -7.7734985 5.8508987c-2.072876 2.4852448 -3.6275635 5.3939743 -4.6640625 8.726204c-1.036438 3.3210907 -1.5546875 6.904068 -1.5546875 10.748947l0 1.454361c0 3.8114471 0.5182495 7.3832855 1.5546875 10.715515c1.036499 3.3210754 2.5911865 6.2298126 4.6640625 8.726196c2.072937 2.4852448 4.6696777 4.429962 7.790222 5.8341827c3.1316528 1.4042206 6.803833 2.1063232 11.016541 2.1063232c4.1793213 0 7.9573975 -0.8414154 11.3342285 -2.5242462c3.376831 -1.6939697 6.0682983 -4.017624 8.074341 -6.970932c2.0061035 -2.9644623 3.0258179 -6.3524017 3.0592651 -10.163849l-13.591003 0c-0.033447266 1.7051239 -0.44580078 3.1873474 -1.2370605 4.446686c-0.78015137 1.2481842 -1.8556519 2.2177734 -3.2264404 2.9087372c-1.3707886 0.6798096 -2.9421997 1.0197296 -4.7142334 1.0197296c-2.1397705 0 -3.878357 -0.4346466 -5.2156982 -1.3039246c-1.3374023 -0.86927795 -2.3850098 -2.0561676 -3.1428223 -3.5606842c-0.7467041 -1.5045166 -1.2537842 -3.2263641 -1.5213013 -5.165512c-0.26745605 -1.9391632 -0.40118408 -3.9618988 -0.40118408 -6.068222l0 -1.454361c0 -2.1063232 0.13928223 -4.11792 0.4179077 -6.03479c0.28979492 -1.928009 0.8024292 -3.6498566 1.5379639 -5.165512c0.7355957 -1.5268097 1.7720337 -2.730423 3.109436 -3.6108398c1.3373413 -0.89157104 3.059204 -1.3373489 5.1655884 -1.3373489c1.9725952 0 3.6331787 0.4457779 4.9816895 1.3373489c1.3596191 0.88041687 2.3961182 2.0561676 3.109375 3.5272522c0.72442627 1.4710846 1.1033325 3.1093445 1.1367798 4.9147644l13.591003 0c-0.033447266 -4.312958 -1.0141602 -8.046387 -2.9421997 -11.200302c-1.9169312 -3.165062 -4.5582275 -5.600151 -7.92395 -7.3052673c-3.3545532 -1.7051239 -7.255188 -2.5576782 -11.701965 -2.5576782z" fill-rule="evenodd"/><path stroke="#759393" stroke-width="2.0" stroke-linejoin="round" stroke-linecap="butt" d="m817.9363 124.486824c2.0394897 0 3.7780762 0.43463135 5.2157593 1.3039093c1.4376221 0.86927795 2.5966797 2.0673218 3.4771118 3.5941238c0.89160156 1.5156708 1.5435791 3.2542267 1.9559326 5.2156677c0.4234619 1.9503021 0.6352539 4.028763 0.6352539 6.235382l0 1.0531616c0 2.2734985 -0.21179199 4.3965454 -0.6352539 6.3691254c-0.41235352 1.9725952 -1.0531616 3.7055664 -1.9224854 5.198944c-0.8692627 1.4822235 -2.022766 2.6412659 -3.4604492 3.4771118c-1.4376831 0.83584595 -3.159546 1.2537689 -5.1655884 1.2537689c-2.072937 0 -3.828186 -0.41792297 -5.265869 -1.2537689c-1.4376831 -0.83584595 -2.602295 -1.9948883 -3.4938965 -3.4771118c-0.8804321 -1.4933777 -1.5212402 -3.2263489 -1.9224854 -5.198944c-0.40118408 -1.97258 -0.60180664 -4.095627 -0.60180664 -6.3691254l0 -1.0531616c0 -2.2066193 0.20062256 -4.28508 0.60180664 -6.235382c0.40124512 -1.961441 1.0420532 -3.699997 1.9224854 -5.2156677c0.89160156 -1.5268021 2.045044 -2.724846 3.4604492 -3.5941238c1.4265137 -0.86927795 3.159546 -1.3039093 5.1990356 -1.3039093zm0 -11.283882c-4.1124268 0 -7.756775 0.6965332 -10.932983 2.0896072c-3.1762695 1.3819275 -5.851013 3.3099365 -8.024231 5.7840347c-2.1732178 2.4740906 -3.828247 5.3939743 -4.964966 8.759628c-1.1367798 3.3545227 -1.7052002 7.0210876 -1.7052002 10.999695l0 1.0531616c0 3.9451904 0.5684204 7.600601 1.7052002 10.966263c1.1367188 3.3545227 2.7973022 6.2799683 4.9816895 8.776352c2.1954956 2.4852448 4.886963 4.413254 8.074341 5.7840424c3.1985474 1.3707733 6.854004 2.0561676 10.966431 2.0561676c4.1124268 0 7.756775 -0.6853943 10.932983 -2.0561676c3.1762695 -1.3707886 5.8565674 -3.2987976 8.040955 -5.7840424c2.1954956 -2.4963837 3.8616333 -5.421829 4.998413 -8.776352c1.1367798 -3.3656616 1.7051392 -7.0210724 1.7051392 -10.966263l0 -1.0531616c0 -3.9786072 -0.5683594 -7.645172 -1.7051392 -10.999695c-1.1367798 -3.365654 -2.8029175 -6.2855377 -4.998413 -8.759628c-2.1843872 -2.4740982 -4.8814087 -4.4021072 -8.091064 -5.7840347c-3.2097168 -1.393074 -6.8707275 -2.0896072 -10.983154 -2.0896072z" fill-rule="evenodd"/><path stroke="#759393" stroke-width="2.0" stroke-linejoin="round" stroke-linecap="butt" d="m882.28046 113.20294c-3.4771729 0 -6.536377 0.65195465 -9.177673 1.9558716c-2.5527344 1.2601852 -4.7099 3.0148315 -6.4714966 5.263939l0 0l-0.49957275 -6.2168045l-13.591003 0l0 54.26294l14.493713 0l0 -38.50032l0 0c0.20263672 -0.3768463 0.41992188 -0.73857117 0.65197754 -1.0852051c0.90270996 -1.359642 2.045044 -2.4239502 3.427002 -3.1929245c1.3931274 -0.76898193 3.0258179 -1.1534653 4.8981323 -1.1534653c1.7051392 0 3.1651 0.2674713 4.379883 0.8024063c1.2259521 0.5349426 2.1732178 1.4710846 2.841919 2.8084335c0.6687012 1.3373566 1.0030518 3.2430725 1.0030518 5.717163l0 34.603912l14.4435425 0l0 -36.208725c0 -0.54234314 -0.010314941 -1.0723114 -0.03100586 -1.58992l0 0c0.3562622 -0.82180786 0.7845459 -1.5790405 1.28479 -2.2716827c0.86932373 -1.2036057 1.9559326 -2.1453247 3.2598877 -2.825142c1.303894 -0.69096375 2.8251343 -1.0364456 4.5637207 -1.0364456c1.6717529 0 3.1149902 0.26189423 4.329773 0.7856903c1.2258911 0.51264954 2.1620483 1.4320831 2.8084717 2.7582855c0.65753174 1.3150635 0.9863281 3.2263489 0.9863281 5.7338867l0 34.654053l14.493713 0l0 -34.654053c0 -3.7780151 -0.41235352 -6.9709396 -1.2370605 -9.578766c-0.81359863 -2.6078339 -1.9837646 -4.7197266 -3.51062 -6.3356934c-1.515686 -1.6271057 -3.3433838 -2.814003 -5.4832153 -3.5606918c-2.1397705 -0.75782776 -4.513611 -1.1367416 -7.12146 -1.1367416c-3.4102783 0 -6.4193726 0.6463852 -9.027283 1.9391556c-2.6078491 1.2816238 -4.7922363 3.0758972 -6.5531006 5.3828278c-0.25830078 0.3405609 -0.5072632 0.6891403 -0.7468262 1.0457306l0 0c-0.70526123 -1.5375137 -1.576355 -2.8445282 -2.6132812 -3.9210358c-1.4488525 -1.5268021 -3.1762695 -2.6468353 -5.182312 -3.3600845c-2.0060425 -0.72439575 -4.2127075 -1.0865936 -6.619995 -1.0865936z" fill-rule="evenodd"/></g></svg>