<svg version="1.1" viewBox="0.0 0.0 309.2309711286089 284.61417322834643" fill="none" stroke="none" stroke-linecap="square" stroke-miterlimit="10" xmlns:xlink="http://www.w3.org/1999/xlink" xmlns="http://www.w3.org/2000/svg"><clipPath id="p.0"><path d="m0 0l309.23096 0l0 284.61417l-309.23096 0l0 -284.61417z" clip-rule="nonzero"/></clipPath><g clip-path="url(#p.0)"><path fill="#000000" fill-opacity="0.0" d="m0 0l309.23096 0l0 284.61417l-309.23096 0z" fill-rule="evenodd"/><path fill="#d9d2e9" d="m175.18758 34.096252l6.3726196 2.8081627l3.6944427 1.989563l4.263809 2.8425407l2.6996613 2.5578575l4.1220093 3.553711l3.837326 4.4056168l1.989563 2.6996613l2.131363 3.127224l2.2742462 4.1209297l1.4212646 3.2690315l1.5630798 4.120926l1.5630798 4.8321075l0.9947815 3.6955185l0.42648315 5.8268814l0.28468323 6.9634705l-0.7111664 7.531769l-1.2783966 5.543274l-1.7059479 4.8321l-1.8477631 4.262741l-1.989563 4.263809l-2.5578613 4.5474167l-4.8320923 5.543274l-3.837326 4.120941l-5.968689 4.5484924l-4.9739075 2.557846l-4.4056244 2.4160614l-4.5484924 1.989563l-6.395172 1.8477478l-7.1052856 1.2783966l-4.5484924 0.1428833l-5.1157074 -0.28468323l-6.6798553 -0.14181519l-6.6798706 -1.8477478l-6.395172 -2.4160614l-4.5474243 -2.557846l-2.9843445 -1.7059631l-4.9739075 -3.5526276l-3.6955185 -3.2690277l-3.2690277 -2.8425446l-3.8362503 -4.9739075l-3.4108276 -5.115715l-1.4212723 -3.1272278l-1.8477631 -3.267952l-1.4212646 -4.263809l-2.1313705 -6.679863l-0.99585724 -5.8268814l0 -7.105278l0.1428833 -6.964546l1.5630722 -6.8216705l1.7048798 -5.1157074l3.1272278 -7.3899612l2.842537 -4.6903l3.5526352 -4.690296l3.979126 -4.2627373l5.826889 -5.2585907l5.968689 -3.9791298l7.2481537 -3.553711l6.5380554 -1.989563l4.5474243 -1.2783909l5.685074 -0.85297775l5.542206 -0.5682926l9.379517 1.2783909l8.101135 1.7059536l4.6903076 1.7048798l8.100052 4.263809l6.5380554 5.116787l-7.1063538 -5.43692l-6.297409 -2.987568z" fill-rule="evenodd"/><path stroke="#b4a7d6" stroke-width="4.0" stroke-linejoin="round" stroke-linecap="butt" d="m175.18758 34.096252l6.3726196 2.8081627l3.6944427 1.989563l4.263809 2.8425407l2.6996613 2.5578575l4.1220093 3.553711l3.837326 4.4056168l1.989563 2.6996613l2.131363 3.127224l2.2742462 4.1209297l1.4212646 3.2690315l1.5630798 4.120926l1.5630798 4.8321075l0.9947815 3.6955185l0.42648315 5.8268814l0.28468323 6.9634705l-0.7111664 7.531769l-1.2783966 5.543274l-1.7059479 4.8321l-1.8477631 4.262741l-1.989563 4.263809l-2.5578613 4.5474167l-4.8320923 5.543274l-3.837326 4.120941l-5.968689 4.5484924l-4.9739075 2.557846l-4.4056244 2.4160614l-4.5484924 1.989563l-6.395172 1.8477478l-7.1052856 1.2783966l-4.5484924 0.1428833l-5.1157074 -0.28468323l-6.6798553 -0.14181519l-6.6798706 -1.8477478l-6.395172 -2.4160614l-4.5474243 -2.557846l-2.9843445 -1.7059631l-4.9739075 -3.5526276l-3.6955185 -3.2690277l-3.2690277 -2.8425446l-3.8362503 -4.9739075l-3.4108276 -5.115715l-1.4212723 -3.1272278l-1.8477631 -3.267952l-1.4212646 -4.263809l-2.1313705 -6.679863l-0.99585724 -5.8268814l0 -7.105278l0.1428833 -6.964546l1.5630722 -6.8216705l1.7048798 -5.1157074l3.1272278 -7.3899612l2.842537 -4.6903l3.5526352 -4.690296l3.979126 -4.2627373l5.826889 -5.2585907l5.968689 -3.9791298l7.2481537 -3.553711l6.5380554 -1.989563l4.5474243 -1.2783909l5.685074 -0.85297775l5.542206 -0.5682926l9.379517 1.2783909l8.101135 1.7059536l4.6903076 1.7048798l8.100052 4.263809l6.5380554 5.116787l-7.1063538 -5.43692l-6.297409 -2.987568z" fill-rule="evenodd"/><path fill="#d9d2e9" d="m111.19267 141.34163l2.4074554 2.7512207l4.1273804 2.2355804l4.814911 2.923111l4.8159943 2.5804138l6.534836 2.0636902l8.426636 2.7512207l9.459015 0.5156555l6.534836 0l5.3305664 -0.5156555l8.771484 -1.3761444l8.598526 -2.5793457l8.598526 -4.814911l4.814911 -3.4398346l3.95549 -2.923111l6.0191803 3.7825317l12.210251 9.97467l10.490326 12.898865l8.2547455 13.929092l3.4398499 10.835159l2.2355652 7.566147l1.0323792 11.86647l0.34378052 7.2234497l-0.86050415 5.3305664l-1.7188416 3.783615l-5.33165 6.0191803l-4.814911 3.0960693l-6.879669 3.95549l-12.554016 4.986801l-7.2223816 2.2355652l-8.426636 1.7199249l-16.854355 2.5793457l-16.509506 0.6886139l-9.457947 0.6875305l-20.636887 -1.2042694l-15.650078 -2.4074554l-17.713776 -4.4711456l-8.254753 -3.0960693l-10.662209 -5.846222l-5.1597595 -4.1273804l-4.1273804 -5.6754l-2.2355728 -5.33165l-0.5156479 -3.95549l0 -6.1910706l1.5480347 -8.942291l2.4074554 -12.897781l6.878601 -15.13443l4.644104 -7.91098l6.7067184 -8.0828705l4.643036 -5.1586914l5.6754074 -4.6430206z" fill-rule="evenodd"/><path stroke="#b4a7d6" stroke-width="4.0" stroke-linejoin="round" stroke-linecap="butt" d="m111.19267 141.34163l2.4074554 2.7512207l4.1273804 2.2355804l4.814911 2.923111l4.8159943 2.5804138l6.534836 2.0636902l8.426636 2.7512207l9.459015 0.5156555l6.534836 0l5.3305664 -0.5156555l8.771484 -1.3761444l8.598526 -2.5793457l8.598526 -4.814911l4.814911 -3.4398346l3.95549 -2.923111l6.0191803 3.7825317l12.210251 9.97467l10.490326 12.898865l8.2547455 13.929092l3.4398499 10.835159l2.2355652 7.566147l1.0323792 11.86647l0.34378052 7.2234497l-0.86050415 5.3305664l-1.7188416 3.783615l-5.33165 6.0191803l-4.814911 3.0960693l-6.879669 3.95549l-12.554016 4.986801l-7.2223816 2.2355652l-8.426636 1.7199249l-16.854355 2.5793457l-16.509506 0.6886139l-9.457947 0.6875305l-20.636887 -1.2042694l-15.650078 -2.4074554l-17.713776 -4.4711456l-8.254753 -3.0960693l-10.662209 -5.846222l-5.1597595 -4.1273804l-4.1273804 -5.6754l-2.2355728 -5.33165l-0.5156479 -3.95549l0 -6.1910706l1.5480347 -8.942291l2.4074554 -12.897781l6.878601 -15.13443l4.644104 -7.91098l6.7067184 -8.0828705l4.643036 -5.1586914l5.6754074 -4.6430206z" fill-rule="evenodd"/><path fill="#ece8f7" d="m77.04462 217.92389l0.3149643 -6.6036835l4.401573 -20.125977l4.0866165 -10.375336l11.6377945 -15.409439l8.48819 -8.805786l5.9763794 2.2021027l2.5144348 5.031494l-2.829399 12.577438l-3.1443558 7.5485535l-4.401573 10.690292l-1.5748062 9.435684l-1.2572174 10.063004l-0.31495667 9.43306l-1.5721817 5.973755l-6.603676 1.5721893l-6.9186325 -2.51445l-4.7165375 -3.7742767z" fill-rule="evenodd"/><path fill="#ece8f7" d="m122.0215 53.64042l-6.846756 5.7942467l-5.793579 7.9008293l-4.738121 16.327148l1.0531693 12.113991l4.738121 15.273857l5.793579 2.1065826l2.1063461 -11.586197l-0.52544403 -11.060699l1.5786133 -14.74836l3.1595078 -6.8452454l1.5809021 -6.847534z" fill-rule="evenodd"/></g></svg>