<svg version="1.1" viewBox="0.0 0.0 198.44094488188978 177.16797900262466" fill="none" stroke="none" stroke-linecap="square" stroke-miterlimit="10" xmlns:xlink="http://www.w3.org/1999/xlink" xmlns="http://www.w3.org/2000/svg"><clipPath id="p.0"><path d="m0 0l198.44095 0l0 177.16798l-198.44095 0l0 -177.16798z" clip-rule="nonzero"/></clipPath><g clip-path="url(#p.0)"><path fill="#000000" fill-opacity="0.0" d="m0 0l198.44095 0l0 177.16798l-198.44095 0z" fill-rule="evenodd"/><path fill="#6b8b8b" d="m49.888847 57.846684l-19.405457 17.016064l-2.6278229 6.5937195l1.212841 22.125954l61.864513 53.823418l11.521988 1.2762146l11.724129 -8.295334l54.58747 -45.5281l1.8192596 -3.1905136l-1.2128448 -18.510033l-0.20213318 -7.231827l-12.936966 -10.209633l5.659912 -2.7651138l5.862076 -4.6794167l1.414978 -4.6794167l0.6064148 -21.062443l-2.2235413 -5.9556217l-5.0534973 -5.1048183l-3.436386 -2.5574741l-12.537506 -0.4254017l-6.0641937 4.8971825l-4.649231 2.9778118l-1.414978 4.6794167l-0.80856323 7.6572285l-3.8406677 1.276207l-23.250923 -17.866867l-6.872772 -2.1320724l-6.0642014 1.493969l-24.665909 18.50497l1.2128372 8.29533l0 17.23383l5.4577866 1.2761993l7.681328 -1.2761993l5.8668747 1.9143066l3.6385193 4.254013l0 4.041313l-4.042801 2.552414l-8.090416 1.9143066l-7.0749054 -0.8508072l-5.6599274 -2.977806l-4.6492233 -4.4667206l-0.40428162 -5.74292l-1.6171188 -4.041313l-4.8561783 -2.5524101z" fill-rule="evenodd"/><path fill="#76adad" d="m167.70285 34.755424l0 -5.212599l-2.7529602 -5.587904l-5.5010986 -4.5923004l-12.147659 -0.7454014l-3.5518951 1.1207085l-6.1893463 3.846899l-1.8336945 2.1111012l-0.80374146 3.8468971l0.46202087 6.3280964l-1.4919739 2.4864082l-2.5219421 1.4855919l-24.122063 -17.7489l-6.535866 -2.1111012l-6.0738297 0.99560547l-5.2700806 2.2362041l-19.771233 16.07044l-0.34171295 4.222206l2.8636475 6.5783005l2.406433 1.4908028l10.544975 -0.250206l5.6166153 2.9816055l4.4711456 3.3517036l2.175415 5.212597l0.80374146 4.4671974l-0.80374146 3.8468933l-2.0647202 4.5923004l-5.0390625 4.8425064l-8.369568 3.1014938l-7.4503098 -1.490799l-3.8936005 -0.3700943l-4.4711533 -2.9816055l-2.4064293 -2.9763947l-2.5219383 -4.717407l-1.3764763 -6.2081985l-1.2561569 -1.9860039l-3.8984184 -1.9860001l-3.7829094 -0.3700943l-2.7481422 0l-15.930569 13.589245l-2.2957363 4.472412l-0.79893494 4.5923004l0.68824005 4.7173996l46.525925 42.076088l10.429466 9.559906l3.8984222 3.2266083l5.5010986 2.6062927l6.5310516 -0.7454071l4.1294327 -1.2405853l61.142593 -55.73311l0.5727234 -3.3516998l-0.3465271 -4.5923004l-2.290924 -4.0970993l-17.995285 -16.132996l-0.6834259 -3.6019058l0.4572296 -6.8285027l8.0230255 0.125103l7.7920227 -2.3560944l2.7481537 -4.472412z" fill-rule="evenodd"/><path fill="#8bbbbb" d="m124.76721 65.74935l0.45722198 -7.573906l0.23101807 -7.073494l-0.23101807 -5.958l-2.8636475 -2.7314034l-11.574936 -9.554691l-5.1593857 -4.47241l-2.2909164 -1.2405987l-2.7529602 -0.6202984l-3.205368 -0.3700943l-3.2101746 0.6202984l-3.0946732 1.610693l-16.387787 15.14781l2.175415 1.2406006l4.3556366 -0.250206l5.8476257 0.3700943l8.821976 4.4724083l2.6374435 2.111103l4.355644 5.332489l1.4871674 5.462803l0.11550903 6.7034035l-0.572731 4.842499l-1.9492035 4.097107l-3.320877 2.2309875l-4.7021637 3.1067123l-4.8128586 3.4715881l-6.0738297 1.2406006l-5.270088 0.250206l-5.963135 -1.3656998l-5.3855896 -2.6063004l-3.8936043 -2.7313995l-3.3256874 -3.7218018l-1.6026802 -3.8468933l-1.2609711 -3.8521118l-0.9192581 -3.3516998l-1.2609673 -2.2309952l-2.5219383 0l-4.5818443 3.7218018l-4.3556404 4.0970993l-4.9283676 5.462799l-4.0091133 3.1015015l1.2609673 4.0970993l5.2700844 6.3280945l41.486862 35.252808l3.3256836 0.37530518l15.3578415 -12.416412l8.249245 -7.9440002l3.8984146 -7.073494l4.2401276 -5.958l3.2101822 -9.3097l1.718193 -5.958z" fill-rule="evenodd"/></g></svg>