<svg version="1.1" viewBox="0.0 0.0 251.18635170603673 251.51968503937007" fill="none" stroke="none" stroke-linecap="square" stroke-miterlimit="10" xmlns:xlink="http://www.w3.org/1999/xlink" xmlns="http://www.w3.org/2000/svg"><clipPath id="p.0"><path d="m0 0l251.18636 0l0 251.51968l-251.18636 0l0 -251.51968z" clip-rule="nonzero"/></clipPath><g clip-path="url(#p.0)"><path fill="#000000" fill-opacity="0.0" d="m0 0l251.18636 0l0 251.51968l-251.18636 0z" fill-rule="evenodd"/><path fill="#666666" d="m2.0656168 44.469307l0 0c0 -22.448431 18.19805 -40.64648 40.64648 -40.64648l165.76216 0l0 0c10.780106 0 21.118698 4.282385 28.741394 11.905079c7.622696 7.622695 11.905075 17.961285 11.905075 28.741402l0 162.58105c0 22.44844 -18.198044 40.646484 -40.64647 40.646484l-165.76216 0c-22.448431 0 -40.64648 -18.198044 -40.64648 -40.646484z" fill-rule="evenodd"/><path fill="#80d0ec" d="m84.53371 60.79002c-11.962456 0 -22.408718 2.9424171 -31.33878 8.827244c-8.906185 5.860306 -15.735054 13.731262 -20.48661 23.612877c-4.72768 9.881615 -7.0915184 20.744026 -7.0915184 32.587242c0 12.578827 2.328024 23.784515 6.98407 33.61708c4.679928 9.808044 11.365536 17.495102 20.05682 23.061172c8.715168 5.5415497 18.827145 8.312332 30.335941 8.312332c7.4735565 0 14.171104 -0.7969055 20.092636 -2.3907166c5.9454193 -1.5692902 12.177361 -4.205185 18.695824 -7.9077454l-8.559967 -23.796768c-6.661728 3.5799408 -11.843071 5.9706573 -15.544029 7.1721344c-3.700966 1.1769562 -8.154053 1.7654419 -13.359276 1.7654419c-6.3035736 0 -11.795326 -1.7531738 -16.47525 -5.2595673c-4.656048 -3.5063782 -8.33313 -8.312317 -11.03125 -14.417831c-2.69812 -6.13002 -4.04718 -13.007919 -4.04718 -20.633675c0 -12.480743 3.1517868 -22.166183 9.45536 -29.056343c6.327446 -6.890152 14.123344 -10.335236 23.387688 -10.335236c4.2740097 0 8.142113 0.4536209 11.604301 1.3608704c3.486061 0.90724945 8.33313 2.9546814 14.541191 6.142288l8.2734375 -23.90712c-6.5900955 -3.2856903 -12.475815 -5.566063 -17.657166 -6.84111c-5.181343 -1.2750511 -11.126755 -1.912571 -17.836243 -1.912571z" fill-rule="evenodd"/><path stroke="#759393" stroke-width="2.0" stroke-linejoin="round" stroke-linecap="butt" d="m84.53371 60.79002c-11.962456 0 -22.408718 2.9424171 -31.33878 8.827244c-8.906185 5.860306 -15.735054 13.731262 -20.48661 23.612877c-4.72768 9.881615 -7.0915184 20.744026 -7.0915184 32.587242c0 12.578827 2.328024 23.784515 6.98407 33.61708c4.679928 9.808044 11.365536 17.495102 20.05682 23.061172c8.715168 5.5415497 18.827145 8.312332 30.335941 8.312332c7.4735565 0 14.171104 -0.7969055 20.092636 -2.3907166c5.9454193 -1.5692902 12.177361 -4.205185 18.695824 -7.9077454l-8.559967 -23.796768c-6.661728 3.5799408 -11.843071 5.9706573 -15.544029 7.1721344c-3.700966 1.1769562 -8.154053 1.7654419 -13.359276 1.7654419c-6.3035736 0 -11.795326 -1.7531738 -16.47525 -5.2595673c-4.656048 -3.5063782 -8.33313 -8.312317 -11.03125 -14.417831c-2.69812 -6.13002 -4.04718 -13.007919 -4.04718 -20.633675c0 -12.480743 3.1517868 -22.166183 9.45536 -29.056343c6.327446 -6.890152 14.123344 -10.335236 23.387688 -10.335236c4.2740097 0 8.142113 0.4536209 11.604301 1.3608704c3.486061 0.90724945 8.33313 2.9546814 14.541191 6.142288l8.2734375 -23.90712c-6.5900955 -3.2856903 -12.475815 -5.566063 -17.657166 -6.84111c-5.181343 -1.2750511 -11.126755 -1.912571 -17.836243 -1.912571z" fill-rule="evenodd"/><path fill="#76adad" d="m171.00443 53.356953l-41.223755 98.0793l0 17.731659l56.93837 0l0 29.024124l23.091507 0l0 -29.024124l15.807617 0l0 -22.077347l-15.807617 0l0 -38.793976l-23.091507 0l0 38.793976l-30.809326 0l35.427628 -84.91535l-20.332916 -8.818256z" fill-rule="evenodd"/><path stroke="#759393" stroke-width="2.0" stroke-linejoin="round" stroke-linecap="butt" d="m171.00443 53.356953l-41.223755 98.0793l0 17.731659l56.93837 0l0 29.024124l23.091507 0l0 -29.024124l15.807617 0l0 -22.077347l-15.807617 0l0 -38.793976l-23.091507 0l0 38.793976l-30.809326 0l35.427628 -84.91535l-20.332916 -8.818256z" fill-rule="evenodd"/></g></svg>